<svg version="1.0" xml:space="preserve" width="110" height="110" xmlns="http://www.w3.org/2000/svg"><g transform="translate(-.812 .96)"><circle style="fill:#02cc93;fill-opacity:1;stroke-width:7.7214" cx="49.323" cy="51.083" r="39.731"/><path style="fill:currentColor;fill-opacity:1;stroke-width:7.7283" d="M169.874 10.336a40 40 0 0 0-40 40 40 40 0 0 0 40 40 40 40 0 0 0 40-40 40 40 0 0 0-40-40zm0 3a37 37 0 0 1 37 37 37 37 0 0 1-37 37 37 37 0 0 1-37-37 37 37 0 0 1 37-37z" transform="translate(-107.843 6.394)"/><path style="fill:currentColor;fill-opacity:1;stroke:none;stroke-width:3;stroke-dasharray:none;stroke-opacity:1" d="m164.757 58.54-11.1.061c-.833.005-1.5.636-1.496 1.416l.06 11.293c.005.78.68 1.405 1.514 1.4l11.098-.06c.833-.005 1.5-.638 1.496-1.418l-.06-11.291c-.005-.78-.679-1.405-1.512-1.4zm-.485 2.002.055 10.11-10.107.054-.055-10.107 10.107-.057zM174.493 22.937c-2.052-.009-4.163.1-4.707.113-1.03.025-8.076-.02-8.53.905-.479.976 3.55 7.15 4.118 8.078.536.878 4.022 7.002 5.049 6.933 1.085-.073 4.415-6.648 4.935-7.603.493-.904 4.056-6.985 3.483-7.84-.303-.452-2.296-.578-4.348-.586zm-.36 2.002c.749-.002 1.547.008 2.303.057-.47 1.073-1.015 2.113-1.574 3.142-1.44 2.515-2.698 5.133-4.24 7.59l-.276.422a37.387 37.387 0 0 1-1.457-2.166c-.31-.489-.655-1.074-.925-1.512-.884-1.53-1.857-3.004-2.76-4.521a40.953 40.953 0 0 1-1.47-2.653c1.026-.114 2.06-.158 3.093-.195 2.194-.028 4.385-.107 6.578-.16.235-.003.48-.004.729-.004zM186.534 56.505c-1.451-.016-3.29.092-3.701.117-.774.048-5.787.358-6.412.817-.533.39-1.622 4.567-1.787 5.207-.195.75-1.449 5.613-1.205 6.35.207.627 3.84 2.955 4.398 3.31.654.417 4.892 3.112 5.668 3.107.66-.003 3.996-2.742 4.506-3.162.598-.493 4.473-3.69 4.709-4.43.2-.629-1.374-4.646-1.615-5.261-.285-.722-2.128-5.393-2.758-5.846-.201-.144-.932-.2-1.803-.209zm.285 1.989c.282-.012.475.13.549.441 1.222 2.62 2.31 5.307 3.182 8.064l.056.206c-.11.293-.488.504-.705.76-2.08 1.871-4.212 3.698-6.515 5.29-.372-.18-.734-.377-1.092-.582-2.352-1.368-4.685-2.791-6.846-4.449.126-.864.318-1.718.51-2.57.093-.427.229-.96.31-1.315.394-1.587.812-3.17 1.33-4.722.082-.305.18-.613.561-.557a67.765 67.765 0 0 1 8.533-.553.938.938 0 0 1 .127-.013zM155.493 33.63c-1.144.01-4.195.602-4.725.7-.595.109-4.443.777-4.902 1.171-.467.402-1.76 4.157-1.967 4.737-.203.57-1.548 4.237-1.435 4.832.114.604 2.718 3.602 3.117 4.07.392.46 2.896 3.46 3.467 3.66.58.204 4.478-.553 5.084-.664.595-.11 4.445-.777 4.904-1.172.466-.401 1.759-4.156 1.965-4.736.202-.57 1.55-4.238 1.437-4.832-.114-.605-2.718-3.602-3.117-4.07-.392-.461-2.896-3.46-3.467-3.66a1.202 1.202 0 0 0-.361-.036zm-.398 2.028c.405.267.724.734 1.084 1.09 1.422 1.64 2.87 3.269 4.171 5.01-.11.581-.333 1.17-.515 1.747-.677 1.935-1.331 3.919-2.156 5.828-.62.22-1.314.324-1.97.47-1.93.36-3.908.774-5.896 1.005-.313-.16-.546-.538-.816-.791-1.523-1.721-3.044-3.452-4.43-5.287 0-.36.195-.751.287-1.117.737-2.188 1.472-4.383 2.381-6.506.677-.18 1.362-.328 2.049-.465.923-.186 1.926-.357 2.803-.521.544-.098.955-.172 1.504-.26.36-.054 1.023-.154 1.504-.203zM188.175 32.986a8.406 8.406 0 0 0-8.405 8.406 8.406 8.406 0 0 0 8.405 8.406 8.406 8.406 0 0 0 8.406-8.406 8.406 8.406 0 0 0-8.406-8.406zm-.127 2.01a6.34 6.34 0 0 1 3.588 1.01c2.505 1.541 3.617 4.92 2.511 7.644-1.013 2.88-4.305 4.685-7.277 3.988-3.03-.555-5.334-3.58-5.063-6.646.114-2.917 2.495-5.491 5.37-5.92.289-.045.58-.07.87-.076z" transform="translate(-107.843 6.394)"/></g></svg>