<svg xml:space="preserve" width="110" height="110" xmlns="http://www.w3.org/2000/svg"><path style="fill:#ff6eb0;fill-opacity:1;stroke-width:6.68578" d="M89.469 87.617c-2.263 2.891-26.578-3.68-30.07-2.7-3.494.98-21.125 19.31-24.514 18.003-3.39-1.307-4.788-26.968-6.779-30.06-1.991-3.092-24.498-14.563-24.33-18.26.168-3.698 23.619-12.987 25.882-15.877 2.262-2.89 5.983-28.309 9.476-29.288 3.494-.979 19.384 18.941 22.775 20.247 3.39 1.306 28.194-2.934 30.185.159 1.992 3.092-11.637 24.693-11.805 28.391-.168 3.697 11.443 26.495 9.18 29.385z" transform="translate(.344 -4.25)"/><g transform="rotate(45 4.603 -85.979)"><rect style="fill:currentColor;stroke:none;stroke-width:2.96092;stroke-linecap:round;stroke-dasharray:none;stroke-opacity:1" width="3" height="10" x="-161.496" y="33.542" ry="1.5" rx="1.5" transform="scale(-1)"/><g transform="translate(-.053)"><rect style="fill:currentColor;stroke:none;stroke-width:3.31041;stroke-linecap:round;stroke-dasharray:none;stroke-opacity:1" width="3" height="12.5" x="137.547" y="27.826" ry="1.5" rx="1.5" transform="rotate(-30.828)"/><rect style="fill:currentColor;stroke:none;stroke-width:3.31041;stroke-linecap:round;stroke-dasharray:none;stroke-opacity:1" width="3" height="12.5" x="134.324" y="123.711" ry="1.5" rx="1.5" transform="scale(1 -1) rotate(-30.828)"/></g><g transform="rotate(-45 130.541 -93.665)"><rect style="fill:currentColor;stroke:none;stroke-width:3.10544;stroke-linecap:round;stroke-dasharray:none;stroke-opacity:1" width="3" height="11" x="129.429" y="-57.897" ry="1.5" rx="1.5"/><rect style="fill:currentColor;stroke:none;stroke-width:3.10544;stroke-linecap:round;stroke-dasharray:none;stroke-opacity:1" width="3" height="11" x="-53.897" y="-136.429" ry="1.5" rx="1.5" transform="rotate(90)"/></g><g transform="rotate(-45 160.166 -22.98)"><rect style="fill:currentColor;stroke:none;stroke-width:3.10544;stroke-linecap:round;stroke-dasharray:none;stroke-opacity:1" width="3" height="11" x="129.429" y="-57.897" ry="1.5" rx="1.5"/><rect style="fill:currentColor;stroke:none;stroke-width:3.10544;stroke-linecap:round;stroke-dasharray:none;stroke-opacity:1" width="3" height="11" x="-53.897" y="-136.429" ry="1.5" rx="1.5" transform="rotate(90)"/></g><g transform="rotate(-45 201.471 -122.7)"><rect style="fill:currentColor;stroke:none;stroke-width:3.10544;stroke-linecap:round;stroke-dasharray:none;stroke-opacity:1" width="3" height="11" x="129.429" y="-57.897" ry="1.5" rx="1.5"/><rect style="fill:currentColor;stroke:none;stroke-width:3.10544;stroke-linecap:round;stroke-dasharray:none;stroke-opacity:1" width="3" height="11" x="-53.897" y="-136.429" ry="1.5" rx="1.5" transform="rotate(90)"/></g><path style="fill:currentColor;fill-opacity:1;stroke:none;stroke-width:1.62539;stroke-linecap:round;stroke-dasharray:none;stroke-opacity:1" d="m139.044-21.778 1.107 2.932c5.375 14.178 10.703 28.377 16.107 42.542 1.202 2.555 4.936 3.431 7.013 1.522 1.602-1.457 1.877-3.737 2.712-5.64 4.988-13.676 9.98-27.351 14.964-41.028-13.968-.11-27.936-.216-41.903-.328zm3.768 3.115c11.375.165 22.75.331 34.125.493L162.82 21.17c-.203 1.227-1.395 2.232-2.654 2.047-.696-.094-1.21-.506-1.666-1.021-4.88-12.68-9.74-25.366-14.613-38.049z"/></g></svg>