<svg class="pdb-4" width="100%" height="100%" viewBox="0 0 150.813 214.313" xml:space="preserve" xmlns:xlink="http://www.w3.org/1999/xlink" xmlns="http://www.w3.org/2000/svg"><defs><pattern xlink:href="#a" preserveAspectRatio="xMidYMid" id="d" patternTransform="rotate(-52 -79.58 -150.086) scale(3.53734)" x="0" y="0"/><pattern patternUnits="userSpaceOnUse" width="2" height="10" patternTransform="scale(2)" preserveAspectRatio="xMidYMid" id="a" style="fill:#dbdbdb"><path style="stroke:none" d="M0-.5h1v11H0z"/></pattern><pattern xlink:href="#b" preserveAspectRatio="xMidYMid" id="e" patternTransform="rotate(44.998 96.52 -154.226) scale(.05648)" x="0" y="0"/><pattern patternUnits="userSpaceOnUse" width="83" height="84" preserveAspectRatio="xMidYMid" id="b" style="fill:#227638" patternTransform="rotate(45) scale(.5)" x="0" y="0"><path style="fill-opacity:1;stroke:none" d="M29.441 0a18.601 18.601 0 0 0-.802 5.467c0 5.423 2.298 9.285 3.94 11.56 1.64-2.275 3.939-6.137 3.939-11.56A18.62 18.62 0 0 0 35.717 0zm42 0a18.601 18.601 0 0 0-.802 5.467c0 5.423 2.298 9.285 3.94 11.56 1.64-2.275 3.939-6.137 3.939-11.56A18.62 18.62 0 0 0 77.717 0ZM11.578 1.527c-5.423 0-9.283 2.299-11.558 3.94 2.275 1.64 6.135 3.94 11.558 3.94 5.451 0 9.198-2.202 11.56-3.94-2.362-1.738-6.109-3.94-11.56-3.94Zm42 0c-5.423 0-9.283 2.299-11.558 3.94 2.275 1.64 6.135 3.94 11.558 3.94 5.451 0 9.198-2.202 11.56-3.94-2.362-1.738-6.109-3.94-11.56-3.94Zm-42 13.38c-1.738 2.362-3.94 6.108-3.94 11.56 0 5.423 2.3 9.285 3.94 11.56 1.641-2.275 3.94-6.137 3.94-11.56 0-5.452-2.202-9.198-3.94-11.56zm42 0c-1.738 2.362-3.94 6.109-3.94 11.56 0 5.423 2.3 9.285 3.94 11.56 1.641-2.275 3.94-6.137 3.94-11.56 0-5.452-2.202-9.198-3.94-11.56zm-21 7.62c-5.423 0-9.283 2.299-11.558 3.94 2.275 1.64 6.135 3.94 11.558 3.94 5.451 0 9.198-2.202 11.56-3.94-2.362-1.738-6.109-3.94-11.56-3.94zm41 0c-5.423 0-9.283 2.299-11.558 3.94 2.275 1.64 6.135 3.94 11.558 3.94 4.032 0 7.126-1.206 9.422-2.536v-2.808c-2.296-1.33-5.39-2.536-9.422-2.536ZM0 25.062v2.81a23.468 23.468 0 0 0 2.139-1.405A23.466 23.466 0 0 0 0 25.063Zm32.578 10.844c-1.738 2.363-3.94 6.11-3.94 11.56 0 5.424 2.3 9.286 3.94 11.561 1.641-2.275 3.94-6.137 3.94-11.56 0-5.452-2.202-9.198-3.94-11.56zm42 0c-1.738 2.363-3.94 6.11-3.94 11.56 0 5.424 2.3 9.286 3.94 11.561 1.641-2.275 3.94-6.137 3.94-11.56 0-5.452-2.202-9.198-3.94-11.56zm-63 7.621c-5.423 0-9.283 2.299-11.558 3.94 2.275 1.64 6.135 3.94 11.558 3.94 5.451 0 9.198-2.202 11.56-3.94-2.362-1.738-6.109-3.94-11.56-3.94zm42 0c-5.423 0-9.283 2.299-11.558 3.94 2.275 1.64 6.135 3.94 11.558 3.94 5.451 0 9.198-2.202 11.56-3.94-2.362-1.738-6.109-3.94-11.56-3.94zm-42 13.38c-1.738 2.362-3.94 6.109-3.94 11.56 0 5.423 2.3 9.285 3.94 11.56 1.641-2.275 3.94-6.137 3.94-11.56 0-5.451-2.202-9.198-3.94-11.56zm42 0c-1.738 2.362-3.94 6.109-3.94 11.56 0 5.423 2.3 9.285 3.94 11.56 1.641-2.275 3.94-6.137 3.94-11.56 0-5.451-2.202-9.198-3.94-11.56zm-21 7.62c-5.423 0-9.283 2.299-11.558 3.94 2.275 1.64 6.135 3.94 11.558 3.94 5.451 0 9.198-2.202 11.56-3.94-2.362-1.738-6.109-3.94-11.56-3.94zm41 0c-5.423 0-9.283 2.299-11.558 3.94 2.275 1.64 6.135 3.94 11.558 3.94 4.032 0 7.126-1.206 9.422-2.536v-2.808c-2.296-1.33-5.39-2.536-9.422-2.536ZM0 67.062v2.81a23.468 23.468 0 0 0 2.139-1.405A23.466 23.466 0 0 0 0 67.063Zm32.578 10.844c-1.08 1.47-2.338 3.477-3.137 6.094h6.276c-.799-2.617-2.058-4.624-3.139-6.094zm42 0c-1.08 1.47-2.338 3.477-3.137 6.094h6.276c-.799-2.617-2.058-4.624-3.139-6.094z"/></pattern><pattern patternUnits="userSpaceOnUse" width="83" height="84" preserveAspectRatio="xMidYMid" id="c" style="fill:#227638" patternTransform="rotate(45) scale(.5)" x="0" y="0"><path style="fill-opacity:1;stroke:none" d="M29.441 0a18.601 18.601 0 0 0-.802 5.467c0 5.423 2.298 9.285 3.94 11.56 1.64-2.275 3.939-6.137 3.939-11.56A18.62 18.62 0 0 0 35.717 0zm42 0a18.601 18.601 0 0 0-.802 5.467c0 5.423 2.298 9.285 3.94 11.56 1.64-2.275 3.939-6.137 3.939-11.56A18.62 18.62 0 0 0 77.717 0ZM11.578 1.527c-5.423 0-9.283 2.299-11.558 3.94 2.275 1.64 6.135 3.94 11.558 3.94 5.451 0 9.198-2.202 11.56-3.94-2.362-1.738-6.109-3.94-11.56-3.94Zm42 0c-5.423 0-9.283 2.299-11.558 3.94 2.275 1.64 6.135 3.94 11.558 3.94 5.451 0 9.198-2.202 11.56-3.94-2.362-1.738-6.109-3.94-11.56-3.94Zm-42 13.38c-1.738 2.362-3.94 6.108-3.94 11.56 0 5.423 2.3 9.285 3.94 11.56 1.641-2.275 3.94-6.137 3.94-11.56 0-5.452-2.202-9.198-3.94-11.56zm42 0c-1.738 2.362-3.94 6.109-3.94 11.56 0 5.423 2.3 9.285 3.94 11.56 1.641-2.275 3.94-6.137 3.94-11.56 0-5.452-2.202-9.198-3.94-11.56zm-21 7.62c-5.423 0-9.283 2.299-11.558 3.94 2.275 1.64 6.135 3.94 11.558 3.94 5.451 0 9.198-2.202 11.56-3.94-2.362-1.738-6.109-3.94-11.56-3.94zm41 0c-5.423 0-9.283 2.299-11.558 3.94 2.275 1.64 6.135 3.94 11.558 3.94 4.032 0 7.126-1.206 9.422-2.536v-2.808c-2.296-1.33-5.39-2.536-9.422-2.536ZM0 25.062v2.81a23.468 23.468 0 0 0 2.139-1.405A23.466 23.466 0 0 0 0 25.063Zm32.578 10.844c-1.738 2.363-3.94 6.11-3.94 11.56 0 5.424 2.3 9.286 3.94 11.561 1.641-2.275 3.94-6.137 3.94-11.56 0-5.452-2.202-9.198-3.94-11.56zm42 0c-1.738 2.363-3.94 6.11-3.94 11.56 0 5.424 2.3 9.286 3.94 11.561 1.641-2.275 3.94-6.137 3.94-11.56 0-5.452-2.202-9.198-3.94-11.56zm-63 7.621c-5.423 0-9.283 2.299-11.558 3.94 2.275 1.64 6.135 3.94 11.558 3.94 5.451 0 9.198-2.202 11.56-3.94-2.362-1.738-6.109-3.94-11.56-3.94zm42 0c-5.423 0-9.283 2.299-11.558 3.94 2.275 1.64 6.135 3.94 11.558 3.94 5.451 0 9.198-2.202 11.56-3.94-2.362-1.738-6.109-3.94-11.56-3.94zm-42 13.38c-1.738 2.362-3.94 6.109-3.94 11.56 0 5.423 2.3 9.285 3.94 11.56 1.641-2.275 3.94-6.137 3.94-11.56 0-5.451-2.202-9.198-3.94-11.56zm42 0c-1.738 2.362-3.94 6.109-3.94 11.56 0 5.423 2.3 9.285 3.94 11.56 1.641-2.275 3.94-6.137 3.94-11.56 0-5.451-2.202-9.198-3.94-11.56zm-21 7.62c-5.423 0-9.283 2.299-11.558 3.94 2.275 1.64 6.135 3.94 11.558 3.94 5.451 0 9.198-2.202 11.56-3.94-2.362-1.738-6.109-3.94-11.56-3.94zm41 0c-5.423 0-9.283 2.299-11.558 3.94 2.275 1.64 6.135 3.94 11.558 3.94 4.032 0 7.126-1.206 9.422-2.536v-2.808c-2.296-1.33-5.39-2.536-9.422-2.536ZM0 67.062v2.81a23.468 23.468 0 0 0 2.139-1.405A23.466 23.466 0 0 0 0 67.063Zm32.578 10.844c-1.08 1.47-2.338 3.477-3.137 6.094h6.276c-.799-2.617-2.058-4.624-3.139-6.094zm42 0c-1.08 1.47-2.338 3.477-3.137 6.094h6.276c-.799-2.617-2.058-4.624-3.139-6.094z"/></pattern></defs><g transform="translate(-1.68 -2.383)"><text xml:space="preserve" style="font-size:4.15965px;font-family:'Franklin Gothic Demi';-inkscape-font-specification:'Franklin Gothic Demi';text-align:end;text-anchor:end;fill:currentColor;fill-opacity:1;stroke:none;stroke-width:.389969;stroke-dasharray:none;stroke-opacity:1" x="84.522" y="6.802"><tspan style="font-style:normal;font-variant:normal;font-weight:400;font-stretch:normal;font-size:4.15965px;font-family:Arial;-inkscape-font-specification:Arial;fill:currentColor;stroke-width:.389969" x="84.522" y="6.802">13-16 m</tspan></text><path style="fill:currentColor;fill-opacity:1;stroke:none;stroke-width:.0686622;stroke-dasharray:none;stroke-opacity:1" d="M27.188 9.178c.019.216 1.284.944 1.472 1.053.167.097 1.313.762 1.47.652.18-.124.177-1.584.178-1.8 0-.194.003-1.519-.172-1.601-.196-.092-1.46.639-1.648.747-.167.096-1.316.756-1.3.949z"/><rect style="fill:currentColor;fill-opacity:1;stroke:none;stroke-width:.342129;stroke-dasharray:none;stroke-opacity:1" width="98.706" height=".78" x="29.016" y="8.795" ry=".39"/><path style="fill:currentColor;fill-opacity:1;stroke:none;stroke-width:.0686622;stroke-dasharray:none;stroke-opacity:1" d="M129.282 9.178c-.019.216-1.284.944-1.472 1.053-.167.097-1.313.762-1.47.652-.18-.124-.177-1.584-.178-1.8 0-.194-.004-1.519.172-1.601.196-.092 1.46.639 1.648.747.167.096 1.316.756 1.3.949z"/><rect style="fill:#329b47;fill-opacity:1;stroke:#d0d0d0;stroke-width:.701942;stroke-dasharray:none;stroke-opacity:1" width="101.392" height="194.984" x="27.539" y="19.599" ry=".137"/><rect style="opacity:.561247;mix-blend-mode:soft-light;fill:url(#d);fill-opacity:1;stroke-width:.0987488" width="101.392" height="25.348" x="-128.931" y="189.235" ry=".018" transform="scale(-1 1)"/><path style="fill:#ff7953;stroke-width:.01295" d="M29.928 213.918v1.348h-4.681v-1.348h.378l.418-1.62.409-1.583.537-2.079h1.196l.538 2.08.408 1.582.419 1.62z"/><path style="fill:#ff4f18;stroke-width:.01295" d="m28.185 208.636.538 2.08.408 1.582.419 1.62h.378v1.348h-2.34v-6.63z"/><path style="fill:#fff;stroke-width:.01295" d="M29.131 212.298h-3.088l.409-1.583h2.27z"/><path style="fill:#c8c6cd;stroke-width:.01295" d="M29.131 212.298h-1.544v-1.583h1.136z"/><path style="fill:#ff7953;stroke-width:.01295" d="M130.843 213.918h.378v1.348h-4.681v-1.348h.378l.418-1.62.409-1.583.537-2.079h1.196l.538 2.08.408 1.582z"/><path style="fill:#ff4f18;stroke-width:.01295" d="M130.843 213.918h.378v1.348h-2.34v-6.63h.597l.537 2.08.41 1.582z"/><path style="fill:#fff;stroke-width:.01295" d="m130.016 210.715.408 1.583h-3.088l.409-1.583z"/><path style="fill:#c8c6cd;stroke-width:.01295" d="m130.016 210.715.408 1.583h-1.544v-1.583z"/><path style="fill:#ff7953;stroke-width:.01295" d="m28.192 13.77.538 2.08.408 1.582.419 1.62h.378V20.4h-4.681v-1.348h.378l.418-1.62.409-1.583.537-2.079Z"/><path style="fill:#ff4f18;stroke-width:.01295" d="m28.192 13.77.538 2.08.408 1.582.419 1.62h.378V20.4h-2.34v-6.63Z"/><path style="fill:#fff;stroke-width:.01295" d="M29.138 17.432H26.05l.409-1.583h2.27z"/><path style="fill:#c8c6cd;stroke-width:.01295" d="M29.138 17.432h-1.544v-1.583h1.136z"/><path style="fill:#ff7953;stroke-width:.01295" d="M128.29 13.77h1.196l.538 2.08.408 1.582.419 1.62h.378V20.4h-4.681v-1.348h.378l.418-1.62.409-1.583z"/><path style="fill:#ff4f18;stroke-width:.01295" d="M130.85 19.052h.379V20.4h-2.34v-6.63h.597l.538 2.08.408 1.582z"/><path style="fill:#fff;stroke-width:.01295" d="m130.024 15.85.408 1.582h-3.088l.409-1.583z"/><path style="fill:#c8c6cd;stroke-width:.01295" d="m130.024 15.85.408 1.582h-1.544v-1.583z"/><rect style="fill:#e6e6e6;fill-opacity:1;stroke:none;stroke-width:.198455;stroke-dasharray:none;stroke-opacity:1" width="101.392" height=".702" x="28.011" y="189.235" ry=".013"/><path style="fill:#ff7953;stroke-width:.01295" d="M25.247 188.538h.378l.418-1.62.409-1.583.537-2.079h1.196l.538 2.08.408 1.582.419 1.62h.378v1.348h-4.681z"/><path style="fill:#ff4f18;stroke-width:.01295" d="M29.55 188.538h.378v1.348h-2.34v-6.63h.597l.538 2.08.408 1.582z"/><path style="fill:#fff;stroke-width:.01295" d="m28.723 185.335.408 1.583h-3.088l.409-1.583z"/><path style="fill:#c8c6cd;stroke-width:.01295" d="m28.723 185.335.408 1.583h-1.544v-1.583z"/><path style="fill:#ff7953;stroke-width:.01295" d="M126.54 189.886v-1.348h.378l.418-1.62.409-1.583.537-2.079h1.196l.538 2.08.408 1.582.419 1.62h.378v1.348z"/><path style="fill:#ff4f18;stroke-width:.01295" d="M128.88 189.886v-6.63h.598l.537 2.08.41 1.582.418 1.62h.378v1.348z"/><path style="fill:#fff;stroke-width:.01295" d="M127.745 185.335h2.27l.41 1.583h-3.089z"/><path style="fill:#c8c6cd;stroke-width:.01295" d="M128.88 185.335h1.136l.408 1.583h-1.544z"/><path style="fill:url(#e);fill-opacity:1;stroke:#d0d0d0;stroke-width:.373603;stroke-dasharray:none;stroke-opacity:1" d="M53.57 70.235a24.606 24.18 0 0 1 24.606-24.18 24.606 24.18 0 0 1 24.606 24.18H78.176Z"/><g transform="translate(-76.555 -120.544) scale(2.82408)"><circle style="fill:#ff4f18;fill-opacity:1;stroke-width:.102261" cx="46.083" cy="67.472" r=".387"/><circle style="fill:#ff4f18;fill-opacity:1;stroke-width:.102261" cx="46.84" cy="64.076" r=".387"/><circle style="fill:#ff4f18;fill-opacity:1;stroke-width:.102261" cx="49.213" cy="60.922" r=".387"/><circle style="fill:#ff4f18;fill-opacity:1;stroke-width:.102261" cx="52.477" cy="59.276" r=".387"/></g><g transform="matrix(-2.82408 0 0 2.82408 233.025 -120.544)"><circle style="fill:#ff4f18;fill-opacity:1;stroke-width:.102261" cx="46.083" cy="67.472" r=".387"/><circle style="fill:#ff4f18;fill-opacity:1;stroke-width:.102261" cx="46.84" cy="64.076" r=".387"/><circle style="fill:#ff4f18;fill-opacity:1;stroke-width:.102261" cx="49.213" cy="60.922" r=".387"/><circle style="fill:#ff4f18;fill-opacity:1;stroke-width:.102261" cx="52.477" cy="59.276" r=".387"/></g><rect style="fill-opacity:1;stroke:none;stroke-width:.189638;stroke-dasharray:none;stroke-opacity:1" width="44.456" height=".78" x="56.076" y="69.862" ry=".023"/><text xml:space="preserve" style="font-size:6.23949px;font-family:'Franklin Gothic Demi';-inkscape-font-specification:'Franklin Gothic Demi';text-align:end;text-anchor:end;fill:#f6d10d;fill-opacity:1;stroke:none;stroke-width:.389969;stroke-dasharray:none;stroke-opacity:1" x="96.465" y="204.142"><tspan style="font-style:normal;font-variant:normal;font-weight:700;font-stretch:normal;font-size:6.23949px;font-family:Arial;-inkscape-font-specification:'Arial Bold';fill:#000;stroke-width:.389969" x="96.465" y="204.142">CLEAR BOX</tspan></text><text xml:space="preserve" style="font-size:6.23949px;font-family:'Franklin Gothic Demi';-inkscape-font-specification:'Franklin Gothic Demi';text-align:end;text-anchor:end;fill:#f6d10d;fill-opacity:1;stroke:none;stroke-width:.389969;stroke-dasharray:none;stroke-opacity:1" x="96.799" y="64.337"><tspan style="font-style:normal;font-variant:normal;font-weight:700;font-stretch:normal;font-size:6.23949px;font-family:Arial;-inkscape-font-specification:'Arial Bold';fill:#000;stroke-width:.389969" x="96.799" y="64.337">GOAL ZONE</tspan></text><path style="fill:currentColor;fill-opacity:1;stroke:none;stroke-width:.0686622;stroke-dasharray:none;stroke-opacity:1" d="M19.596 214.583c-.216-.019-.944-1.284-1.053-1.472-.097-.167-.762-1.313-.652-1.47.124-.18 1.584-.177 1.8-.178.194 0 1.519-.004 1.601.172.092.196-.639 1.46-.747 1.648-.096.167-.756 1.316-.949 1.3zM19.596 19.994c-.216.019-.944 1.284-1.053 1.472-.097.167-.762 1.313-.652 1.47.124.18 1.584.177 1.8.178.194 0 1.519.003 1.601-.172.092-.196-.639-1.46-.747-1.648-.096-.167-.756-1.316-.949-1.3z"/><text xml:space="preserve" style="font-size:4.15965px;font-family:'Franklin Gothic Demi';-inkscape-font-specification:'Franklin Gothic Demi';text-align:end;text-anchor:end;fill:currentColor;fill-opacity:1;stroke:none;stroke-width:.389969;stroke-dasharray:none;stroke-opacity:1" x="18.147" y="130.817"><tspan style="font-style:normal;font-variant:normal;font-weight:400;font-stretch:normal;font-size:4.15965px;font-family:Arial;-inkscape-font-specification:Arial;fill:currentColor;stroke-width:.389969" x="18.147" y="130.817">20-30 m</tspan></text><text xml:space="preserve" style="font-size:4.15965px;font-family:'Franklin Gothic Demi';-inkscape-font-specification:'Franklin Gothic Demi';text-align:end;text-anchor:end;fill:currentColor;fill-opacity:1;stroke:none;stroke-width:.389969;stroke-dasharray:none;stroke-opacity:1" x="141.025" y="204.967"><tspan style="font-style:normal;font-variant:normal;font-weight:400;font-stretch:normal;font-size:4.15965px;font-family:Arial;-inkscape-font-specification:Arial;text-align:start;text-anchor:start;fill:currentColor;stroke-width:.389969" x="141.025" y="204.967">3.5 m</tspan></text><rect style="fill:currentColor;fill-opacity:1;stroke:none;stroke-width:.474933;stroke-dasharray:none;stroke-opacity:1" width="190.211" height=".78" x="22.511" y="-19.979" ry=".39" transform="rotate(90)"/><g style="fill:#1a1a1a" transform="translate(.215 -2.614)"><path style="fill:currentColor;fill-opacity:1;stroke:none;stroke-width:.132292;stroke-dasharray:none;stroke-opacity:1" d="M88.138 100.774c-.417-.036-1.82-2.473-2.03-2.835-.187-.322-1.468-2.53-1.256-2.834.24-.344 3.052-.34 3.47-.341.373-.001 2.925-.007 3.083.33.178.379-1.231 2.813-1.44 3.175-.185.323-1.456 2.537-1.827 2.505z" transform="translate(93.093 164.893) scale(.51902)"/><path style="fill:currentColor;fill-opacity:1;stroke:none;stroke-width:.132292;stroke-dasharray:none;stroke-opacity:1" d="M88.138 100.774c-.417-.036-1.82-2.473-2.03-2.835-.187-.322-1.468-2.53-1.256-2.834.24-.344 3.052-.34 3.47-.341.373-.001 2.925-.007 3.083.33.178.379-1.231 2.813-1.44 3.175-.185.323-1.456 2.537-1.827 2.505z" transform="matrix(.51902 0 0 -.51902 93.093 244.152)"/><rect style="fill:currentColor;fill-opacity:1;stroke:none;stroke-width:.161796;stroke-dasharray:none;stroke-opacity:1" width="22.075" height=".78" x="193.456" y="-139.221" ry=".39" transform="rotate(90)"/></g></g></svg>