<svg width="877" height="828" viewBox="0 0 232.04 219.075" xml:space="preserve" xmlns:xlink="http://www.w3.org/1999/xlink" xmlns="http://www.w3.org/2000/svg"><defs><pattern xlink:href="#a" preserveAspectRatio="xMidYMid" id="d" patternTransform="scale(3.53734) rotate(-52 -21.709 -42.122)" x="0" y="0"/><pattern patternUnits="userSpaceOnUse" width="2" height="10" patternTransform="scale(2)" preserveAspectRatio="xMidYMid" id="a" style="fill:#dbdbdb"><path style="stroke:none" d="M0-.5h1v11H0z"/></pattern><pattern xlink:href="#b" preserveAspectRatio="xMidYMid" id="e" patternTransform="rotate(45) scale(.02)" x="0" y="0"/><pattern patternUnits="userSpaceOnUse" width="83" height="84" preserveAspectRatio="xMidYMid" id="b" style="fill:#227638" patternTransform="rotate(45) scale(.5)" x="0" y="0"><path style="fill-opacity:1;stroke:none" d="M29.441 0a18.601 18.601 0 0 0-.802 5.467c0 5.423 2.298 9.285 3.94 11.56 1.64-2.275 3.939-6.137 3.939-11.56 0-2.061-.316-3.876-.801-5.467zm42 0a18.601 18.601 0 0 0-.802 5.467c0 5.423 2.298 9.285 3.94 11.56 1.64-2.275 3.939-6.137 3.939-11.56 0-2.061-.316-3.876-.801-5.467ZM11.578 1.527c-5.423 0-9.283 2.299-11.558 3.94 2.275 1.64 6.135 3.94 11.558 3.94 5.451 0 9.198-2.202 11.56-3.94-2.362-1.738-6.109-3.94-11.56-3.94Zm42 0c-5.423 0-9.283 2.299-11.558 3.94 2.275 1.64 6.135 3.94 11.558 3.94 5.451 0 9.198-2.202 11.56-3.94-2.362-1.738-6.109-3.94-11.56-3.94Zm-42 13.38c-1.738 2.362-3.94 6.108-3.94 11.56 0 5.423 2.3 9.285 3.94 11.56 1.641-2.275 3.94-6.137 3.94-11.56 0-5.452-2.202-9.198-3.94-11.56zm42 0c-1.738 2.362-3.94 6.109-3.94 11.56 0 5.423 2.3 9.285 3.94 11.56 1.641-2.275 3.94-6.137 3.94-11.56 0-5.452-2.202-9.198-3.94-11.56zm-21 7.62c-5.423 0-9.283 2.299-11.558 3.94 2.275 1.64 6.135 3.94 11.558 3.94 5.451 0 9.198-2.202 11.56-3.94-2.362-1.738-6.109-3.94-11.56-3.94zm41 0c-5.423 0-9.283 2.299-11.558 3.94 2.275 1.64 6.135 3.94 11.558 3.94 4.032 0 7.126-1.206 9.422-2.536v-2.808c-2.296-1.33-5.39-2.536-9.422-2.536ZM0 25.062v2.81a23.468 23.468 0 0 0 2.139-1.405A23.466 23.466 0 0 0 0 25.063Zm32.578 10.844c-1.738 2.363-3.94 6.11-3.94 11.56 0 5.424 2.3 9.286 3.94 11.561 1.641-2.275 3.94-6.137 3.94-11.56 0-5.452-2.202-9.198-3.94-11.56zm42 0c-1.738 2.363-3.94 6.11-3.94 11.56 0 5.424 2.3 9.286 3.94 11.561 1.641-2.275 3.94-6.137 3.94-11.56 0-5.452-2.202-9.198-3.94-11.56zm-63 7.621c-5.423 0-9.283 2.299-11.558 3.94 2.275 1.64 6.135 3.94 11.558 3.94 5.451 0 9.198-2.202 11.56-3.94-2.362-1.738-6.109-3.94-11.56-3.94zm42 0c-5.423 0-9.283 2.299-11.558 3.94 2.275 1.64 6.135 3.94 11.558 3.94 5.451 0 9.198-2.202 11.56-3.94-2.362-1.738-6.109-3.94-11.56-3.94zm-42 13.38c-1.738 2.362-3.94 6.109-3.94 11.56 0 5.423 2.3 9.285 3.94 11.56 1.641-2.275 3.94-6.137 3.94-11.56 0-5.451-2.202-9.198-3.94-11.56zm42 0c-1.738 2.362-3.94 6.109-3.94 11.56 0 5.423 2.3 9.285 3.94 11.56 1.641-2.275 3.94-6.137 3.94-11.56 0-5.451-2.202-9.198-3.94-11.56zm-21 7.62c-5.423 0-9.283 2.299-11.558 3.94 2.275 1.64 6.135 3.94 11.558 3.94 5.451 0 9.198-2.202 11.56-3.94-2.362-1.738-6.109-3.94-11.56-3.94zm41 0c-5.423 0-9.283 2.299-11.558 3.94 2.275 1.64 6.135 3.94 11.558 3.94 4.032 0 7.126-1.206 9.422-2.536v-2.808c-2.296-1.33-5.39-2.536-9.422-2.536ZM0 67.062v2.81a23.468 23.468 0 0 0 2.139-1.405A23.466 23.466 0 0 0 0 67.063Zm32.578 10.844c-1.08 1.47-2.338 3.477-3.137 6.094h6.276c-.799-2.617-2.058-4.624-3.139-6.094zm42 0c-1.08 1.47-2.338 3.477-3.137 6.094h6.276c-.799-2.617-2.058-4.624-3.139-6.094z"/></pattern><pattern xlink:href="#c" preserveAspectRatio="xMidYMid" id="f" patternTransform="rotate(45) scale(.02)" x="0" y="0"/><pattern patternUnits="userSpaceOnUse" width="83" height="84" preserveAspectRatio="xMidYMid" id="c" style="fill:#227638" patternTransform="rotate(45) scale(.5)" x="0" y="0"><path style="fill-opacity:1;stroke:none" d="M29.441 0a18.601 18.601 0 0 0-.802 5.467c0 5.423 2.298 9.285 3.94 11.56 1.64-2.275 3.939-6.137 3.939-11.56 0-2.061-.316-3.876-.801-5.467zm42 0a18.601 18.601 0 0 0-.802 5.467c0 5.423 2.298 9.285 3.94 11.56 1.64-2.275 3.939-6.137 3.939-11.56 0-2.061-.316-3.876-.801-5.467ZM11.578 1.527c-5.423 0-9.283 2.299-11.558 3.94 2.275 1.64 6.135 3.94 11.558 3.94 5.451 0 9.198-2.202 11.56-3.94-2.362-1.738-6.109-3.94-11.56-3.94Zm42 0c-5.423 0-9.283 2.299-11.558 3.94 2.275 1.64 6.135 3.94 11.558 3.94 5.451 0 9.198-2.202 11.56-3.94-2.362-1.738-6.109-3.94-11.56-3.94Zm-42 13.38c-1.738 2.362-3.94 6.108-3.94 11.56 0 5.423 2.3 9.285 3.94 11.56 1.641-2.275 3.94-6.137 3.94-11.56 0-5.452-2.202-9.198-3.94-11.56zm42 0c-1.738 2.362-3.94 6.109-3.94 11.56 0 5.423 2.3 9.285 3.94 11.56 1.641-2.275 3.94-6.137 3.94-11.56 0-5.452-2.202-9.198-3.94-11.56zm-21 7.62c-5.423 0-9.283 2.299-11.558 3.94 2.275 1.64 6.135 3.94 11.558 3.94 5.451 0 9.198-2.202 11.56-3.94-2.362-1.738-6.109-3.94-11.56-3.94zm41 0c-5.423 0-9.283 2.299-11.558 3.94 2.275 1.64 6.135 3.94 11.558 3.94 4.032 0 7.126-1.206 9.422-2.536v-2.808c-2.296-1.33-5.39-2.536-9.422-2.536ZM0 25.062v2.81a23.468 23.468 0 0 0 2.139-1.405A23.466 23.466 0 0 0 0 25.063Zm32.578 10.844c-1.738 2.363-3.94 6.11-3.94 11.56 0 5.424 2.3 9.286 3.94 11.561 1.641-2.275 3.94-6.137 3.94-11.56 0-5.452-2.202-9.198-3.94-11.56zm42 0c-1.738 2.363-3.94 6.11-3.94 11.56 0 5.424 2.3 9.286 3.94 11.561 1.641-2.275 3.94-6.137 3.94-11.56 0-5.452-2.202-9.198-3.94-11.56zm-63 7.621c-5.423 0-9.283 2.299-11.558 3.94 2.275 1.64 6.135 3.94 11.558 3.94 5.451 0 9.198-2.202 11.56-3.94-2.362-1.738-6.109-3.94-11.56-3.94zm42 0c-5.423 0-9.283 2.299-11.558 3.94 2.275 1.64 6.135 3.94 11.558 3.94 5.451 0 9.198-2.202 11.56-3.94-2.362-1.738-6.109-3.94-11.56-3.94zm-42 13.38c-1.738 2.362-3.94 6.109-3.94 11.56 0 5.423 2.3 9.285 3.94 11.56 1.641-2.275 3.94-6.137 3.94-11.56 0-5.451-2.202-9.198-3.94-11.56zm42 0c-1.738 2.362-3.94 6.109-3.94 11.56 0 5.423 2.3 9.285 3.94 11.56 1.641-2.275 3.94-6.137 3.94-11.56 0-5.451-2.202-9.198-3.94-11.56zm-21 7.62c-5.423 0-9.283 2.299-11.558 3.94 2.275 1.64 6.135 3.94 11.558 3.94 5.451 0 9.198-2.202 11.56-3.94-2.362-1.738-6.109-3.94-11.56-3.94zm41 0c-5.423 0-9.283 2.299-11.558 3.94 2.275 1.64 6.135 3.94 11.558 3.94 4.032 0 7.126-1.206 9.422-2.536v-2.808c-2.296-1.33-5.39-2.536-9.422-2.536ZM0 67.062v2.81a23.468 23.468 0 0 0 2.139-1.405A23.466 23.466 0 0 0 0 67.063Zm32.578 10.844c-1.08 1.47-2.338 3.477-3.137 6.094h6.276c-.799-2.617-2.058-4.624-3.139-6.094zm42 0c-1.08 1.47-2.338 3.477-3.137 6.094h6.276c-.799-2.617-2.058-4.624-3.139-6.094z"/></pattern><path id="g" d="M872.823 824.007h181.594v167.926H872.823z"/></defs><g transform="translate(.215 -2.614)"><text xml:space="preserve" style="font-size:4.15965px;font-family:'Franklin Gothic Demi';-inkscape-font-specification:'Franklin Gothic Demi';text-align:end;text-anchor:end;fill:currentColor;fill-opacity:1;stroke:none;stroke-width:.389969;stroke-dasharray:none;stroke-opacity:1" x="84.307" y="9.416"><tspan style="font-style:normal;font-variant:normal;font-weight:400;font-stretch:normal;font-size:4.15965px;font-family:Arial;-inkscape-font-specification:Arial;fill:currentColor;stroke-width:.389969" x="84.307" y="9.416">13-16 m</tspan></text><text xml:space="preserve" style="font-size:4.15965px;font-family:'Franklin Gothic Demi';-inkscape-font-specification:'Franklin Gothic Demi';text-align:end;text-anchor:end;fill:var(--accent);fill-opacity:1;stroke:none;stroke-width:.389969;stroke-dasharray:none;stroke-opacity:1" x="180.668" y="82.949"><tspan style="font-style:normal;font-variant:normal;font-weight:400;font-stretch:normal;font-size:4.15965px;font-family:Arial;-inkscape-font-specification:Arial;fill:var(--accent);fill-opacity:1;stroke-width:.389969" x="180.668" y="82.949">5.7 m</tspan></text><text xml:space="preserve" style="font-size:4.15965px;font-family:'Franklin Gothic Demi';-inkscape-font-specification:'Franklin Gothic Demi';text-align:end;text-anchor:end;fill:currentColor;fill-opacity:1;stroke:none;stroke-width:.389969;stroke-dasharray:none;stroke-opacity:1" x="181.932" y="94.221"><tspan style="font-style:normal;font-variant:normal;font-weight:400;font-stretch:normal;font-size:4.15965px;font-family:Arial;-inkscape-font-specification:Arial;fill:currentColor;stroke-width:.389969" x="181.932" y="94.221">6.7 m</tspan></text><path style="fill:currentColor;fill-opacity:1;stroke:none;stroke-width:.132292;stroke-dasharray:none;stroke-opacity:1" d="M88.138 100.774c-.417-.036-1.82-2.473-2.03-2.835-.187-.322-1.468-2.53-1.256-2.834.24-.344 3.052-.34 3.47-.341.373-.001 2.925-.007 3.083.33.178.379-1.231 2.813-1.44 3.175-.185.323-1.456 2.537-1.827 2.505z" transform="matrix(0 -.51902 -.51902 0 79.277 57.537)"/><rect style="fill:currentColor;fill-opacity:1;stroke:none;stroke-width:.342129;stroke-dasharray:none;stroke-opacity:1" width="98.706" height=".78" x="28.801" y="11.409" ry=".39"/><path style="fill:currentColor;fill-opacity:1;stroke:none;stroke-width:.132292;stroke-dasharray:none;stroke-opacity:1" d="M88.138 100.774c-.417-.036-1.82-2.473-2.03-2.835-.187-.322-1.468-2.53-1.256-2.834.24-.344 3.052-.34 3.47-.341.373-.001 2.925-.007 3.083.33.178.379-1.231 2.813-1.44 3.175-.185.323-1.456 2.537-1.827 2.505z" transform="matrix(0 -.51902 .51902 0 76.763 57.537)"/><g style="fill:var(--accent);fill-opacity:1" transform="translate(0 -6.35)"><path style="fill:var(--accent);fill-opacity:1;stroke:none;stroke-width:.132292;stroke-dasharray:none;stroke-opacity:1" d="M88.138 100.774c-.417-.036-1.82-2.473-2.03-2.835-.187-.322-1.468-2.53-1.256-2.834.24-.344 3.052-.34 3.47-.341.373-.001 2.925-.007 3.083.33.178.379-1.231 2.813-1.44 3.175-.185.323-1.456 2.537-1.827 2.505z" transform="matrix(0 -.51902 -.51902 0 205.495 130.337)"/><rect style="fill:var(--accent);fill-opacity:1;stroke:none;stroke-width:.220952;stroke-dasharray:none;stroke-opacity:1" width="41.168" height=".78" x="154.744" y="84.209" ry=".39"/><path style="fill:var(--accent);fill-opacity:1;stroke:none;stroke-width:.132292;stroke-dasharray:none;stroke-opacity:1" d="M88.138 100.774c-.417-.036-1.82-2.473-2.03-2.835-.187-.322-1.468-2.53-1.256-2.834.24-.344 3.052-.34 3.47-.341.373-.001 2.925-.007 3.083.33.178.379-1.231 2.813-1.44 3.175-.185.323-1.456 2.537-1.827 2.505z" transform="matrix(0 -.51902 .51902 0 145.343 130.337)"/></g><g style="fill:currentColor;fill-opacity:1" transform="translate(0 -5.292)"><path style="fill:currentColor;fill-opacity:1;stroke:none;stroke-width:.132292;stroke-dasharray:none;stroke-opacity:1" d="M88.138 100.774c-.417-.036-1.82-2.473-2.03-2.835-.187-.322-1.468-2.53-1.256-2.834.24-.344 3.052-.34 3.47-.341.373-.001 2.925-.007 3.083.33.178.379-1.231 2.813-1.44 3.175-.185.323-1.456 2.537-1.827 2.505z" transform="matrix(0 -.51902 -.51902 0 202.308 140.55)"/><rect style="fill:currentColor;fill-opacity:1;stroke:none;stroke-width:.237261;stroke-dasharray:none;stroke-opacity:1" width="47.47" height=".78" x="151.557" y="94.422" ry=".39"/><path style="fill:currentColor;fill-opacity:1;stroke:none;stroke-width:.132292;stroke-dasharray:none;stroke-opacity:1" d="M88.138 100.774c-.417-.036-1.82-2.473-2.03-2.835-.187-.322-1.468-2.53-1.256-2.834.24-.344 3.052-.34 3.47-.341.373-.001 2.925-.007 3.083.33.178.379-1.231 2.813-1.44 3.175-.185.323-1.456 2.537-1.827 2.505z" transform="matrix(0 -.51902 .51902 0 149.177 140.55)"/></g><rect style="fill:#329b47;fill-opacity:1;stroke:#d0d0d0;stroke-width:.701942;stroke-dasharray:none;stroke-opacity:1" width="101.392" height="194.984" x="27.324" y="22.213" ry=".137"/><rect style="opacity:.561247;mix-blend-mode:soft-light;fill:url(#d);fill-opacity:1;stroke-width:.0987488" width="101.392" height="25.348" x="-128.716" y="191.849" ry=".018" transform="scale(-1 1)"/><path style="fill:#ff7953" d="M436.743 407.857V512H75.257V407.857h29.194l32.312-125.084 31.569-122.197L209.818 0h92.364l41.486 160.576 31.569 122.197 32.312 125.084z" transform="matrix(.01295 0 0 .01295 24.057 211.25)"/><path style="fill:#ff4f18" d="m302.182 0 41.486 160.576 31.569 122.197 32.312 125.084h29.194V512H256V0z" transform="matrix(.01295 0 0 .01295 24.057 211.25)"/><path style="fill:#fff" d="M375.237 282.773H136.763l31.569-122.197h175.336z" transform="matrix(.01295 0 0 .01295 24.057 211.25)"/><path style="fill:#c8c6cd" d="M375.237 282.773H256V160.576h87.668z" transform="matrix(.01295 0 0 .01295 24.057 211.25)"/><path style="fill:#ff7953" d="M407.549 407.857h29.194V512H75.257V407.857h29.194l32.312-125.084 31.569-122.197L209.818 0h92.364l41.486 160.576 31.569 122.197z" transform="matrix(.01295 0 0 .01295 125.35 211.25)"/><path style="fill:#ff4f18" d="M407.549 407.857h29.194V512H256V0h46.182l41.486 160.576 31.569 122.197z" transform="matrix(.01295 0 0 .01295 125.35 211.25)"/><path style="fill:#fff" d="m343.668 160.576 31.569 122.197H136.763l31.569-122.197z" transform="matrix(.01295 0 0 .01295 125.35 211.25)"/><path style="fill:#c8c6cd" d="m343.668 160.576 31.569 122.197H256V160.576z" transform="matrix(.01295 0 0 .01295 125.35 211.25)"/><path style="fill:#ff7953" d="m302.182 0 41.486 160.576 31.569 122.197 32.312 125.084h29.194V512H75.257V407.857h29.194l32.312-125.084 31.569-122.197L209.818 0z" transform="matrix(.01295 0 0 .01295 24.064 16.384)"/><path style="fill:#ff4f18" d="m302.182 0 41.486 160.576 31.569 122.197 32.312 125.084h29.194V512H256V0z" transform="matrix(.01295 0 0 .01295 24.064 16.384)"/><path style="fill:#fff" d="M375.237 282.773H136.763l31.569-122.197h175.336z" transform="matrix(.01295 0 0 .01295 24.064 16.384)"/><path style="fill:#c8c6cd" d="M375.237 282.773H256V160.576h87.668z" transform="matrix(.01295 0 0 .01295 24.064 16.384)"/><path style="fill:#ff7953" d="M209.818 0h92.364l41.486 160.576 31.569 122.197 32.312 125.084h29.194V512H75.257V407.857h29.194l32.312-125.084 31.569-122.197z" transform="matrix(.01295 0 0 .01295 125.358 16.384)"/><path style="fill:#ff4f18" d="M407.549 407.857h29.194V512H256V0h46.182l41.486 160.576 31.569 122.197z" transform="matrix(.01295 0 0 .01295 125.358 16.384)"/><path style="fill:#fff" d="m343.668 160.576 31.569 122.197H136.763l31.569-122.197z" transform="matrix(.01295 0 0 .01295 125.358 16.384)"/><path style="fill:#c8c6cd" d="m343.668 160.576 31.569 122.197H256V160.576z" transform="matrix(.01295 0 0 .01295 125.358 16.384)"/><rect style="fill:#e6e6e6;fill-opacity:1;stroke:none;stroke-width:.198455;stroke-dasharray:none;stroke-opacity:1" width="101.392" height=".702" x="27.796" y="191.849" ry=".013"/><path style="fill:#ff7953" d="M75.257 407.857h29.194l32.312-125.084 31.569-122.197L209.818 0h92.364l41.486 160.576 31.569 122.197 32.312 125.084h29.194V512H75.257z" transform="matrix(.01295 0 0 .01295 24.057 185.87)"/><path style="fill:#ff4f18" d="M407.549 407.857h29.194V512H256V0h46.182l41.486 160.576 31.569 122.197z" transform="matrix(.01295 0 0 .01295 24.057 185.87)"/><path style="fill:#fff" d="m343.668 160.576 31.569 122.197H136.763l31.569-122.197z" transform="matrix(.01295 0 0 .01295 24.057 185.87)"/><path style="fill:#c8c6cd" d="m343.668 160.576 31.569 122.197H256V160.576z" transform="matrix(.01295 0 0 .01295 24.057 185.87)"/><path style="fill:#ff7953" d="M75.257 512V407.857h29.194l32.312-125.084 31.569-122.197L209.818 0h92.364l41.486 160.576 31.569 122.197 32.312 125.084h29.194V512z" transform="matrix(.01295 0 0 .01295 125.35 185.87)"/><path style="fill:#ff4f18" d="M256 512V0h46.182l41.486 160.576 31.569 122.197 32.312 125.084h29.194V512z" transform="matrix(.01295 0 0 .01295 125.35 185.87)"/><path style="fill:#fff" d="M168.332 160.576h175.336l31.569 122.197H136.763z" transform="matrix(.01295 0 0 .01295 125.35 185.87)"/><path style="fill:#c8c6cd" d="M256 160.576h87.668l31.569 122.197H256z" transform="matrix(.01295 0 0 .01295 125.35 185.87)"/><path style="fill:url(#e);fill-opacity:1;stroke:#d0d0d0;stroke-width:.132292;stroke-dasharray:none;stroke-opacity:1" d="M47.576 65.032a8.713 8.562 0 0 1 8.713-8.562 8.713 8.562 0 0 1 8.713 8.562h-8.713z" transform="matrix(2.82408 0 0 2.82408 -81.004 -110.807)"/><g transform="matrix(2.82408 0 0 2.82408 -76.77 -117.93)"><circle style="fill:#ff4f18;fill-opacity:1;stroke-width:.102261" cx="46.083" cy="67.472" r=".387"/><circle style="fill:#ff4f18;fill-opacity:1;stroke-width:.102261" cx="46.84" cy="64.076" r=".387"/><circle style="fill:#ff4f18;fill-opacity:1;stroke-width:.102261" cx="49.213" cy="60.922" r=".387"/><circle style="fill:#ff4f18;fill-opacity:1;stroke-width:.102261" cx="52.477" cy="59.276" r=".387"/></g><g transform="matrix(-2.82408 0 0 2.82408 232.81 -117.93)"><circle style="fill:#ff4f18;fill-opacity:1;stroke-width:.102261" cx="46.083" cy="67.472" r=".387"/><circle style="fill:#ff4f18;fill-opacity:1;stroke-width:.102261" cx="46.84" cy="64.076" r=".387"/><circle style="fill:#ff4f18;fill-opacity:1;stroke-width:.102261" cx="49.213" cy="60.922" r=".387"/><circle style="fill:#ff4f18;fill-opacity:1;stroke-width:.102261" cx="52.477" cy="59.276" r=".387"/></g><rect style="fill:var(--accent);fill-opacity:1;stroke:none;stroke-width:.189638;stroke-dasharray:none;stroke-opacity:1" width="44.456" height=".78" x="55.861" y="72.476" ry=".023"/><path style="fill:#329b47;fill-opacity:1;stroke-width:.998504" d="m145.483 62.269-6.621 13.404h75.225l-6.621-13.404z"/><text xml:space="preserve" style="font-size:6.23949px;font-family:'Franklin Gothic Demi';-inkscape-font-specification:'Franklin Gothic Demi';text-align:end;text-anchor:end;fill:#f6d10d;fill-opacity:1;stroke:none;stroke-width:.389969;stroke-dasharray:none;stroke-opacity:1" x="211" y="44.755"><tspan style="font-style:normal;font-variant:normal;font-weight:700;font-stretch:normal;font-size:6.23949px;font-family:Arial;-inkscape-font-specification:'Arial Bold';fill:#000;stroke-width:.389969" x="211" y="44.755">FRONT VIEW OF GOAL</tspan></text><text xml:space="preserve" style="font-size:6.23949px;font-family:'Franklin Gothic Demi';-inkscape-font-specification:'Franklin Gothic Demi';text-align:end;text-anchor:end;fill:#f6d10d;fill-opacity:1;stroke:none;stroke-width:.389969;stroke-dasharray:none;stroke-opacity:1" x="96.25" y="206.756"><tspan style="font-style:normal;font-variant:normal;font-weight:700;font-stretch:normal;font-size:6.23949px;font-family:Arial;-inkscape-font-specification:'Arial Bold';fill:#000;stroke-width:.389969" x="96.25" y="206.756">CLEAR BOX</tspan></text><text xml:space="preserve" style="font-size:6.23949px;font-family:'Franklin Gothic Demi';-inkscape-font-specification:'Franklin Gothic Demi';text-align:end;text-anchor:end;fill:#f6d10d;fill-opacity:1;stroke:none;stroke-width:.389969;stroke-dasharray:none;stroke-opacity:1" x="96.584" y="66.951"><tspan style="font-style:normal;font-variant:normal;font-weight:700;font-stretch:normal;font-size:6.23949px;font-family:Arial;-inkscape-font-specification:'Arial Bold';fill:#000;stroke-width:.389969" x="96.584" y="66.951">GOAL ZONE</tspan></text><path style="fill:url(#f);fill-opacity:1;stroke:#d0d0d0;stroke-width:.132292;stroke-dasharray:none;stroke-opacity:1" d="M47.576 65.032a8.713 8.562 0 0 1 8.713-8.562 8.713 8.562 0 0 1 8.713 8.562h-8.713z" transform="matrix(2.82408 0 0 1.15779 16.718 -2.054)"/><g transform="matrix(2.82408 0 0 1.15779 20.953 -4.974)"><circle style="fill:#ff4f18;fill-opacity:1;stroke-width:.102261" cx="46.083" cy="67.472" r=".387"/><circle style="fill:#ff4f18;fill-opacity:1;stroke-width:.102261" cx="46.84" cy="64.076" r=".387"/><circle style="fill:#ff4f18;fill-opacity:1;stroke-width:.102261" cx="49.213" cy="60.922" r=".387"/><circle style="fill:#ff4f18;fill-opacity:1;stroke-width:.102261" cx="52.477" cy="59.276" r=".387"/></g><g transform="matrix(-2.82408 0 0 1.15779 330.532 -4.974)"><circle style="fill:#ff4f18;fill-opacity:1;stroke-width:.102261" cx="46.083" cy="67.472" r=".387"/><circle style="fill:#ff4f18;fill-opacity:1;stroke-width:.102261" cx="46.84" cy="64.076" r=".387"/><circle style="fill:#ff4f18;fill-opacity:1;stroke-width:.102261" cx="49.213" cy="60.922" r=".387"/><circle style="fill:#ff4f18;fill-opacity:1;stroke-width:.102261" cx="52.477" cy="59.276" r=".387"/></g><path style="fill:var(--accent);fill-opacity:1;stroke-width:.663881" d="M175.418 50.608a22.228 22.687 0 0 0-22.227 22.687h1.713a20.516 20.939 0 0 1 20.514-20.938 20.516 20.939 0 0 1 20.516 20.938h1.713a22.228 22.687 0 0 0-22.229-22.687Z"/><path style="font-weight:700;font-size:1.65106px;font-family:Arial;-inkscape-font-specification:'Arial Bold';text-align:end;text-anchor:end;stroke-width:.229437" d="M159.42 69.414v-.26h1.943v.616q-.283.095-.822.167-.536.072-1.088.072-.7 0-1.222-.101-.52-.102-.783-.291-.262-.19-.262-.412 0-.242.293-.43.292-.187.856-.288.43-.077 1.07-.077.831 0 1.297.122.47.12.603.333l-.895.058q-.095-.114-.357-.18-.259-.066-.649-.066-.59 0-.941.13-.347.13-.347.385 0 .275.353.413.353.137.926.137.283 0 .567-.038.286-.039.49-.093v-.196Zm2.592-.195q0-.236.204-.396.153-.119.415-.212.265-.094.579-.14.417-.06.962-.06.987 0 1.578.211.594.212.594.59 0 .374-.588.586-.588.211-1.572.211-.996 0-1.584-.21-.588-.21-.588-.58zm.93-.012q0 .263.35.399.35.135.89.135.539 0 .883-.134.347-.135.347-.404 0-.265-.338-.396-.335-.131-.893-.131-.557 0-.898.133-.342.132-.342.398zm8.134.774h-.981l-.39-.35h-1.785l-.369.35h-.957l1.74-1.546h.954zm-1.66-.611-.616-.574-.603.574zm2.163.611v-1.533h.902v1.273h2.242v.26zm5.02 0V69.7l2.346-1.003h-2.08v-.261h3.269v.242l-2.447 1.043h2.541v.26zm4.016-.763q0-.236.204-.397.152-.118.414-.212.265-.093.58-.139.417-.061.962-.061.987 0 1.578.212.594.212.594.59 0 .374-.588.586-.588.21-1.572.21-.996 0-1.584-.209-.588-.211-.588-.58zm.93-.012q0 .263.35.399.35.135.89.135.538 0 .883-.134.347-.135.347-.404 0-.266-.338-.397-.335-.13-.893-.13-.557 0-.899.133-.34.131-.34.398zm4.115.774v-1.543h.878l1.828 1.032v-1.032h.837v1.546h-.904l-1.801-1.009v1.009zm4.497 0v-1.543h3.312v.261h-2.41v.343h2.242v.26h-2.242v.421h2.495v.26z" aria-label="GOAL ZONE"/><path style="fill:currentColor;fill-opacity:1;stroke:none;stroke-width:.132292;stroke-dasharray:none;stroke-opacity:1" d="M88.138 100.774c-.417-.036-1.82-2.473-2.03-2.835-.187-.322-1.468-2.53-1.256-2.834.24-.344 3.052-.34 3.47-.341.373-.001 2.925-.007 3.083.33.178.379-1.231 2.813-1.44 3.175-.185.323-1.456 2.537-1.827 2.505z" transform="matrix(.51902 0 0 .51902 -26.364 164.893)"/><path style="fill:currentColor;fill-opacity:1;stroke:none;stroke-width:.132292;stroke-dasharray:none;stroke-opacity:1" d="M88.138 100.774c-.417-.036-1.82-2.473-2.03-2.835-.187-.322-1.468-2.53-1.256-2.834.24-.344 3.052-.34 3.47-.341.373-.001 2.925-.007 3.083.33.178.379-1.231 2.813-1.44 3.175-.185.323-1.456 2.537-1.827 2.505z" transform="matrix(.51902 0 0 -.51902 -26.364 74.912)"/><text xml:space="preserve" style="font-size:4.15965px;font-family:'Franklin Gothic Demi';-inkscape-font-specification:'Franklin Gothic Demi';text-align:end;text-anchor:end;fill:currentColor;fill-opacity:1;stroke:none;stroke-width:.389969;stroke-dasharray:none;stroke-opacity:1" x="17.932" y="133.431"><tspan style="font-style:normal;font-variant:normal;font-weight:400;font-stretch:normal;font-size:4.15965px;font-family:Arial;-inkscape-font-specification:Arial;fill:currentColor;stroke-width:.389969" x="17.932" y="133.431">20-30 m</tspan></text><text xml:space="preserve" style="font-size:4.15965px;font-family:'Franklin Gothic Demi';-inkscape-font-specification:'Franklin Gothic Demi';text-align:end;text-anchor:end;fill:currentColor;fill-opacity:1;stroke:none;stroke-width:.389969;stroke-dasharray:none;stroke-opacity:1" x="140.81" y="207.581"><tspan style="font-style:normal;font-variant:normal;font-weight:400;font-stretch:normal;font-size:4.15965px;font-family:Arial;-inkscape-font-specification:Arial;text-align:start;text-anchor:start;fill:currentColor;stroke-width:.389969" x="140.81" y="207.581">3.5 m</tspan></text><rect style="fill:currentColor;fill-opacity:1;stroke:none;stroke-width:.474933;stroke-dasharray:none;stroke-opacity:1" width="190.211" height=".78" x="25.125" y="-19.764" ry=".39" transform="rotate(90)"/><g style="fill:#1a1a1a"><path style="fill:currentColor;fill-opacity:1;stroke:none;stroke-width:.132292;stroke-dasharray:none;stroke-opacity:1" d="M88.138 100.774c-.417-.036-1.82-2.473-2.03-2.835-.187-.322-1.468-2.53-1.256-2.834.24-.344 3.052-.34 3.47-.341.373-.001 2.925-.007 3.083.33.178.379-1.231 2.813-1.44 3.175-.185.323-1.456 2.537-1.827 2.505z" transform="matrix(.51902 0 0 .51902 93.093 164.893)"/><path style="fill:currentColor;fill-opacity:1;stroke:none;stroke-width:.132292;stroke-dasharray:none;stroke-opacity:1" d="M88.138 100.774c-.417-.036-1.82-2.473-2.03-2.835-.187-.322-1.468-2.53-1.256-2.834.24-.344 3.052-.34 3.47-.341.373-.001 2.925-.007 3.083.33.178.379-1.231 2.813-1.44 3.175-.185.323-1.456 2.537-1.827 2.505z" transform="matrix(.51902 0 0 -.51902 93.093 244.152)"/><rect style="fill:currentColor;fill-opacity:1;stroke:none;stroke-width:.161796;stroke-dasharray:none;stroke-opacity:1" width="22.075" height=".78" x="193.456" y="-139.221" ry=".39" transform="rotate(90)"/></g><text xml:space="preserve" style="font-size:4.15965px;font-family:'Franklin Gothic Demi';-inkscape-font-specification:'Franklin Gothic Demi';text-align:end;text-anchor:end;fill:currentColor;fill-opacity:1;stroke:none;stroke-width:.389969;stroke-dasharray:none;stroke-opacity:1" x="176.959" y="152.357"><tspan style="font-style:normal;font-variant:normal;font-weight:400;font-stretch:normal;font-size:4.15965px;font-family:Arial;-inkscape-font-specification:Arial;text-align:center;text-anchor:middle;fill:currentColor;stroke-width:.389969" x="176.959" y="152.357">Stick 2 spikes in the </tspan><tspan style="font-style:normal;font-variant:normal;font-weight:400;font-stretch:normal;font-size:4.15965px;font-family:Arial;-inkscape-font-specification:Arial;text-align:center;text-anchor:middle;fill:currentColor;stroke-width:.389969" x="176.959" y="157.602">ground and inside </tspan><tspan style="font-style:normal;font-variant:normal;font-weight:400;font-stretch:normal;font-size:4.15965px;font-family:Arial;-inkscape-font-specification:Arial;text-align:center;text-anchor:middle;fill:currentColor;stroke-width:.389969" x="176.959" y="162.847">the goal post to </tspan><tspan style="font-style:normal;font-variant:normal;font-weight:400;font-stretch:normal;font-size:4.15965px;font-family:Arial;-inkscape-font-specification:Arial;text-align:center;text-anchor:middle;fill:currentColor;stroke-width:.389969" x="176.959" y="168.092">hold it in place</tspan></text><text xml:space="preserve" style="font-size:6.23949px;font-family:'Franklin Gothic Demi';-inkscape-font-specification:'Franklin Gothic Demi';text-align:end;text-anchor:end;fill:#f6d10d;fill-opacity:1;stroke:none;stroke-width:.389969;stroke-dasharray:none;stroke-opacity:1" x="192.62" y="119.279"><tspan style="font-style:normal;font-variant:normal;font-weight:700;font-stretch:normal;font-size:6.23949px;font-family:Arial;-inkscape-font-specification:'Arial Bold';fill:#000;stroke-width:.389969" x="192.62" y="119.279">THE GOAL</tspan></text><text xml:space="preserve" style="font-size:4.15965px;font-family:'Franklin Gothic Demi';-inkscape-font-specification:'Franklin Gothic Demi';text-align:end;text-anchor:end;fill:var(--accent);fill-opacity:1;stroke:none;stroke-width:.389969;stroke-dasharray:none;stroke-opacity:1" x="176.56" y="138.421"><tspan style="font-style:normal;font-variant:normal;font-weight:400;font-stretch:normal;font-size:4.15965px;font-family:Arial;-inkscape-font-specification:Arial;text-align:center;text-anchor:middle;fill:var(--accent);fill-opacity:1;stroke-width:.389969" x="176.56" y="138.421">9 m pole</tspan><tspan style="font-style:normal;font-variant:normal;font-weight:400;font-stretch:normal;font-size:4.15965px;font-family:Arial;-inkscape-font-specification:Arial;text-align:center;text-anchor:middle;fill:var(--accent);fill-opacity:1;stroke-width:.389969" x="176.56" y="143.666">(⌀ 9.5 mm aluminum)</tspan></text><path style="fill:var(--accent);fill-opacity:1;stroke-width:.663881" d="M176.473 122.334a22.228 22.687 0 0 0-22.227 22.687h1.713a20.516 20.939 0 0 1 20.514-20.938 20.516 20.939 0 0 1 20.516 20.938h1.713a22.228 22.687 0 0 0-22.229-22.687z"/><g transform="rotate(90 -3.683 3.726)" style="fill:#1a1a1a"><rect style="fill:currentColor;fill-opacity:1;stroke:none;stroke-width:.0929148;stroke-dasharray:none;stroke-opacity:1" width="7.28" height=".78" x="139.804" y="-155.469" ry=".39"/><rect style="fill:currentColor;fill-opacity:1;stroke:none;stroke-width:.0929148;stroke-dasharray:none;stroke-opacity:1" width="7.28" height=".78" x="139.804" y="-198.173" ry=".39"/></g></g></svg>