<svg width="290" height="490" viewBox="0 0 76.729 129.646" xmlns:xlink="http://www.w3.org/1999/xlink" xmlns="http://www.w3.org/2000/svg"><defs><pattern xlink:href="#a" preserveAspectRatio="xMidYMid" id="b" patternTransform="scale(.05648 .02316) rotate(45 -2669.086 -270.035)" x="0" y="0"/><pattern patternUnits="userSpaceOnUse" width="83" height="84" preserveAspectRatio="xMidYMid" id="a" style="fill:#227638" patternTransform="rotate(45) scale(.5)" x="0" y="0"><path style="fill-opacity:1;stroke:none" d="M29.441 0a18.601 18.601 0 0 0-.802 5.467c0 5.423 2.298 9.285 3.94 11.56 1.64-2.275 3.939-6.137 3.939-11.56A18.62 18.62 0 0 0 35.717 0zm42 0a18.601 18.601 0 0 0-.802 5.467c0 5.423 2.298 9.285 3.94 11.56 1.64-2.275 3.939-6.137 3.939-11.56A18.62 18.62 0 0 0 77.717 0ZM11.578 1.527c-5.423 0-9.283 2.299-11.558 3.94 2.275 1.64 6.135 3.94 11.558 3.94 5.451 0 9.198-2.202 11.56-3.94-2.362-1.738-6.109-3.94-11.56-3.94Zm42 0c-5.423 0-9.283 2.299-11.558 3.94 2.275 1.64 6.135 3.94 11.558 3.94 5.451 0 9.198-2.202 11.56-3.94-2.362-1.738-6.109-3.94-11.56-3.94Zm-42 13.38c-1.738 2.362-3.94 6.108-3.94 11.56 0 5.423 2.3 9.285 3.94 11.56 1.641-2.275 3.94-6.137 3.94-11.56 0-5.452-2.202-9.198-3.94-11.56zm42 0c-1.738 2.362-3.94 6.109-3.94 11.56 0 5.423 2.3 9.285 3.94 11.56 1.641-2.275 3.94-6.137 3.94-11.56 0-5.452-2.202-9.198-3.94-11.56zm-21 7.62c-5.423 0-9.283 2.299-11.558 3.94 2.275 1.64 6.135 3.94 11.558 3.94 5.451 0 9.198-2.202 11.56-3.94-2.362-1.738-6.109-3.94-11.56-3.94zm41 0c-5.423 0-9.283 2.299-11.558 3.94 2.275 1.64 6.135 3.94 11.558 3.94 4.032 0 7.126-1.206 9.422-2.536v-2.808c-2.296-1.33-5.39-2.536-9.422-2.536ZM0 25.062v2.81a23.468 23.468 0 0 0 2.139-1.405A23.466 23.466 0 0 0 0 25.063Zm32.578 10.844c-1.738 2.363-3.94 6.11-3.94 11.56 0 5.424 2.3 9.286 3.94 11.561 1.641-2.275 3.94-6.137 3.94-11.56 0-5.452-2.202-9.198-3.94-11.56zm42 0c-1.738 2.363-3.94 6.11-3.94 11.56 0 5.424 2.3 9.286 3.94 11.561 1.641-2.275 3.94-6.137 3.94-11.56 0-5.452-2.202-9.198-3.94-11.56zm-63 7.621c-5.423 0-9.283 2.299-11.558 3.94 2.275 1.64 6.135 3.94 11.558 3.94 5.451 0 9.198-2.202 11.56-3.94-2.362-1.738-6.109-3.94-11.56-3.94zm42 0c-5.423 0-9.283 2.299-11.558 3.94 2.275 1.64 6.135 3.94 11.558 3.94 5.451 0 9.198-2.202 11.56-3.94-2.362-1.738-6.109-3.94-11.56-3.94zm-42 13.38c-1.738 2.362-3.94 6.109-3.94 11.56 0 5.423 2.3 9.285 3.94 11.56 1.641-2.275 3.94-6.137 3.94-11.56 0-5.451-2.202-9.198-3.94-11.56zm42 0c-1.738 2.362-3.94 6.109-3.94 11.56 0 5.423 2.3 9.285 3.94 11.56 1.641-2.275 3.94-6.137 3.94-11.56 0-5.451-2.202-9.198-3.94-11.56zm-21 7.62c-5.423 0-9.283 2.299-11.558 3.94 2.275 1.64 6.135 3.94 11.558 3.94 5.451 0 9.198-2.202 11.56-3.94-2.362-1.738-6.109-3.94-11.56-3.94zm41 0c-5.423 0-9.283 2.299-11.558 3.94 2.275 1.64 6.135 3.94 11.558 3.94 4.032 0 7.126-1.206 9.422-2.536v-2.808c-2.296-1.33-5.39-2.536-9.422-2.536ZM0 67.062v2.81a23.468 23.468 0 0 0 2.139-1.405A23.466 23.466 0 0 0 0 67.063Zm32.578 10.844c-1.08 1.47-2.338 3.477-3.137 6.094h6.276c-.799-2.617-2.058-4.624-3.139-6.094zm42 0c-1.08 1.47-2.338 3.477-3.137 6.094h6.276c-.799-2.617-2.058-4.624-3.139-6.094z"/></pattern></defs><text xml:space="preserve" style="font-size:4.15964px;font-family:'Franklin Gothic Demi';-inkscape-font-specification:'Franklin Gothic Demi';text-align:end;text-anchor:end;fill-opacity:1;stroke:none;stroke-width:.389968;stroke-dasharray:none;stroke-opacity:1" x="109.01" y="126.874" transform="translate(-66.452 -83.668)"><tspan style="font-style:normal;font-variant:normal;font-weight:400;font-stretch:normal;font-size:4.15964px;font-family:Arial;-inkscape-font-specification:Arial;fill-opacity:1;stroke-width:.389968" x="109.01" y="126.874">5.7 m</tspan></text><text xml:space="preserve" style="font-size:4.15964px;font-family:'Franklin Gothic Demi';-inkscape-font-specification:'Franklin Gothic Demi';text-align:end;text-anchor:end;fill:currentColor;fill-opacity:1;stroke:none;stroke-width:.389968;stroke-dasharray:none;stroke-opacity:1" x="110.274" y="138.146" transform="translate(-66.452 -83.668)"><tspan style="font-style:normal;font-variant:normal;font-weight:400;font-stretch:normal;font-size:4.15964px;font-family:Arial;-inkscape-font-specification:Arial;fill:currentColor;stroke-width:.389968" x="110.274" y="138.146">6.7 m</tspan></text><g style="fill-opacity:1" transform="matrix(1 0 0 1 -138.11 -46.092)"><path style="fill-opacity:1;stroke:none;stroke-width:.132292;stroke-dasharray:none;stroke-opacity:1" d="M88.138 100.774c-.417-.036-1.82-2.473-2.03-2.835-.187-.322-1.468-2.53-1.256-2.834.24-.344 3.052-.34 3.47-.341.373-.001 2.925-.007 3.083.33.178.379-1.231 2.813-1.44 3.175-.185.323-1.456 2.537-1.827 2.505z" transform="matrix(0 -.51902 -.51902 0 205.495 130.337)"/><rect style="fill-opacity:1;stroke:none;stroke-width:.220952;stroke-dasharray:none;stroke-opacity:1" width="41.168" height=".78" x="154.744" y="84.209" ry=".39"/><path style="fill-opacity:1;stroke:none;stroke-width:.132292;stroke-dasharray:none;stroke-opacity:1" d="M88.138 100.774c-.417-.036-1.82-2.473-2.03-2.835-.187-.322-1.468-2.53-1.256-2.834.24-.344 3.052-.34 3.47-.341.373-.001 2.925-.007 3.083.33.178.379-1.231 2.813-1.44 3.175-.185.323-1.456 2.537-1.827 2.505z" transform="rotate(-90 137.84 -7.503) scale(.51902)"/></g><g style="fill:currentColor;fill-opacity:1" transform="matrix(1 0 0 1 -138.11 -45.034)"><path style="fill:currentColor;fill-opacity:1;stroke:none;stroke-width:.132292;stroke-dasharray:none;stroke-opacity:1" d="M88.138 100.774c-.417-.036-1.82-2.473-2.03-2.835-.187-.322-1.468-2.53-1.256-2.834.24-.344 3.052-.34 3.47-.341.373-.001 2.925-.007 3.083.33.178.379-1.231 2.813-1.44 3.175-.185.323-1.456 2.537-1.827 2.505z" transform="matrix(0 -.51902 -.51902 0 202.308 140.55)"/><rect style="fill:currentColor;fill-opacity:1;stroke:none;stroke-width:.237261;stroke-dasharray:none;stroke-opacity:1" width="47.47" height=".78" x="151.557" y="94.422" ry=".39"/><path style="fill:currentColor;fill-opacity:1;stroke:none;stroke-width:.132292;stroke-dasharray:none;stroke-opacity:1" d="M88.138 100.774c-.417-.036-1.82-2.473-2.03-2.835-.187-.322-1.468-2.53-1.256-2.834.24-.344 3.052-.34 3.47-.341.373-.001 2.925-.007 3.083.33.178.379-1.231 2.813-1.44 3.175-.185.323-1.456 2.537-1.827 2.505z" transform="rotate(-90 144.863 -4.313) scale(.51902)"/></g><path style="fill:#329b47;fill-opacity:1;stroke-width:.998502" d="m73.825 106.194-6.62 13.404h75.224l-6.62-13.404z" transform="translate(-66.452 -83.668)"/><text xml:space="preserve" style="font-size:6.23948px;font-family:'Franklin Gothic Demi';-inkscape-font-specification:'Franklin Gothic Demi';text-align:end;text-anchor:end;fill:#f6d10d;fill-opacity:1;stroke:none;stroke-width:.389968;stroke-dasharray:none;stroke-opacity:1" x="139.342" y="88.68" transform="translate(-66.452 -83.668)"><tspan style="font-style:normal;font-variant:normal;font-weight:700;font-stretch:normal;font-size:6.23948px;font-family:Arial;-inkscape-font-specification:'Arial Bold';fill:currentColor;stroke-width:.389968" x="139.342" y="88.68">FRONT VIEW OF GOAL</tspan></text><path style="fill:url(#b);fill-opacity:1;stroke:#d0d0d0;stroke-width:.239214;stroke-dasharray:none;stroke-opacity:1" d="M79.419 117.164a24.606 9.913 0 0 1 24.606-9.913 24.606 9.913 0 0 1 24.606 9.913h-24.606z" transform="translate(-66.452 -83.668)"/><g transform="matrix(2.82407 0 0 1.15779 -117.157 -44.716)"><circle style="fill:#ff4f18;fill-opacity:1;stroke-width:.102261" cx="46.083" cy="67.472" r=".387"/><circle style="fill:#ff4f18;fill-opacity:1;stroke-width:.102261" cx="46.84" cy="64.076" r=".387"/><circle style="fill:#ff4f18;fill-opacity:1;stroke-width:.102261" cx="49.213" cy="60.922" r=".387"/><circle style="fill:#ff4f18;fill-opacity:1;stroke-width:.102261" cx="52.477" cy="59.276" r=".387"/></g><g transform="matrix(-2.82407 0 0 1.15779 192.422 -44.716)"><circle style="fill:#ff4f18;fill-opacity:1;stroke-width:.102261" cx="46.083" cy="67.472" r=".387"/><circle style="fill:#ff4f18;fill-opacity:1;stroke-width:.102261" cx="46.84" cy="64.076" r=".387"/><circle style="fill:#ff4f18;fill-opacity:1;stroke-width:.102261" cx="49.213" cy="60.922" r=".387"/><circle style="fill:#ff4f18;fill-opacity:1;stroke-width:.102261" cx="52.477" cy="59.276" r=".387"/></g><path style="fill-opacity:1;stroke-width:.66388" d="M103.76 94.533a22.228 22.687 0 0 0-22.227 22.687h1.713a20.516 20.939 0 0 1 20.514-20.938 20.516 20.939 0 0 1 20.516 20.938h1.713a22.228 22.687 0 0 0-22.229-22.687Z" transform="translate(-66.452 -83.668)"/><path style="font-weight:700;font-size:1.65106px;font-family:Arial;-inkscape-font-specification:'Arial Bold';text-align:end;text-anchor:end;stroke-width:.229437" d="M87.762 113.339v-.26h1.943v.616q-.283.095-.822.167-.536.072-1.088.072-.7 0-1.222-.101-.52-.102-.783-.291-.262-.19-.262-.412 0-.242.293-.43.292-.187.856-.288.43-.077 1.07-.077.831 0 1.297.122.47.12.603.333l-.895.058q-.095-.114-.357-.18-.259-.066-.649-.066-.59 0-.94.13-.348.13-.348.385 0 .275.353.413.353.137.926.137.283 0 .567-.038.286-.039.49-.093v-.196zm2.592-.195q0-.236.204-.396.153-.119.415-.212.265-.094.58-.14.416-.06.961-.06.987 0 1.578.211.594.212.594.59 0 .374-.588.586-.588.211-1.572.211-.996 0-1.584-.21-.588-.21-.588-.58zm.93-.012q0 .263.35.399.35.135.89.135t.883-.134q.347-.135.347-.404 0-.265-.338-.396-.335-.131-.893-.131-.557 0-.898.133-.342.132-.342.398zm8.134.774h-.98l-.39-.35h-1.786l-.369.35h-.957l1.74-1.546h.954zm-1.66-.611-.616-.574-.603.574zm2.163.611v-1.533h.902v1.273h2.242v.26zm5.02 0v-.281l2.346-1.003h-2.08v-.261h3.27v.242l-2.448 1.043h2.541v.26zm4.016-.763q0-.236.204-.397.152-.118.414-.212.265-.093.58-.139.417-.061.962-.061.987 0 1.578.212.594.212.594.59 0 .374-.588.586-.588.21-1.572.21-.996 0-1.584-.209-.588-.211-.588-.58zm.93-.012q0 .263.35.399.35.135.89.135.538 0 .883-.134.347-.135.347-.404 0-.266-.338-.397-.335-.13-.893-.13-.557 0-.899.133-.34.131-.34.398zm4.115.774v-1.543h.878l1.828 1.032v-1.032h.837v1.546h-.904l-1.8-1.009v1.009zm4.497 0v-1.543h3.312v.261h-2.41v.343h2.242v.26h-2.242v.421h2.495v.26z" aria-label="GOAL ZONE" transform="translate(-66.452 -83.668)"/><text xml:space="preserve" style="font-size:4.15964px;font-family:'Franklin Gothic Demi';-inkscape-font-specification:'Franklin Gothic Demi';text-align:end;text-anchor:end;fill:currentColor;fill-opacity:1;stroke:none;stroke-width:.389968;stroke-dasharray:none;stroke-opacity:1" x="105.301" y="196.282" transform="translate(-66.452 -83.668)"><tspan style="font-style:normal;font-variant:normal;font-weight:400;font-stretch:normal;font-size:4.15964px;font-family:Arial;-inkscape-font-specification:Arial;text-align:center;text-anchor:middle;fill:currentColor;stroke-width:.389968" x="105.301" y="196.282">Stick 2 spikes in the </tspan><tspan style="font-style:normal;font-variant:normal;font-weight:400;font-stretch:normal;font-size:4.15964px;font-family:Arial;-inkscape-font-specification:Arial;text-align:center;text-anchor:middle;fill:currentColor;stroke-width:.389968" x="105.301" y="201.527">ground and inside </tspan><tspan style="font-style:normal;font-variant:normal;font-weight:400;font-stretch:normal;font-size:4.15964px;font-family:Arial;-inkscape-font-specification:Arial;text-align:center;text-anchor:middle;fill:currentColor;stroke-width:.389968" x="105.301" y="206.772">the goal post to </tspan><tspan style="font-style:normal;font-variant:normal;font-weight:400;font-stretch:normal;font-size:4.15964px;font-family:Arial;-inkscape-font-specification:Arial;text-align:center;text-anchor:middle;fill:currentColor;stroke-width:.389968" x="105.301" y="212.017">hold it in place</tspan></text><text xml:space="preserve" style="font-size:6.23948px;font-family:'Franklin Gothic Demi';-inkscape-font-specification:'Franklin Gothic Demi';text-align:end;text-anchor:end;fill:#f6d10d;fill-opacity:1;stroke:none;stroke-width:.389968;stroke-dasharray:none;stroke-opacity:1" x="120.962" y="163.204" transform="translate(-66.452 -83.668)"><tspan style="font-style:normal;font-variant:normal;font-weight:700;font-stretch:normal;font-size:6.23948px;font-family:Arial;-inkscape-font-specification:'Arial Bold';fill:currentColor;stroke-width:.389968" x="120.962" y="163.204">THE GOAL</tspan></text><text xml:space="preserve" style="font-size:4.15964px;font-family:'Franklin Gothic Demi';-inkscape-font-specification:'Franklin Gothic Demi';text-align:end;text-anchor:end;fill-opacity:1;stroke:none;stroke-width:.389968;stroke-dasharray:none;stroke-opacity:1" x="104.902" y="182.346" transform="translate(-66.452 -83.668)"><tspan style="font-style:normal;font-variant:normal;font-weight:400;font-stretch:normal;font-size:4.15964px;font-family:Arial;-inkscape-font-specification:Arial;text-align:center;text-anchor:middle;fill-opacity:1;stroke-width:.389968" x="104.902" y="182.346">9 m pole</tspan><tspan style="font-style:normal;font-variant:normal;font-weight:400;font-stretch:normal;font-size:4.15964px;font-family:Arial;-inkscape-font-specification:Arial;text-align:center;text-anchor:middle;fill-opacity:1;stroke-width:.389968" x="104.902" y="187.591">(⌀ 9.5 mm aluminum)</tspan></text><path style="fill-opacity:1;stroke-width:.66388" d="M104.815 166.259a22.228 22.687 0 0 0-22.227 22.687h1.713a20.516 20.939 0 0 1 20.514-20.938 20.516 20.939 0 0 1 20.516 20.938h1.713a22.228 22.687 0 0 0-22.229-22.687Z" transform="translate(-66.452 -83.668)"/><g transform="rotate(90 -52.867 -85.2)" style="fill:#1a1a1a"><rect style="fill:currentColor;fill-opacity:1;stroke:none;stroke-width:.0929148;stroke-dasharray:none;stroke-opacity:1" width="7.28" height=".78" x="139.804" y="-155.469" ry=".39"/><rect style="fill:currentColor;fill-opacity:1;stroke:none;stroke-width:.0929148;stroke-dasharray:none;stroke-opacity:1" width="7.28" height=".78" x="139.804" y="-198.173" ry=".39"/></g></svg>