<svg data-name="Line" width="110" height="110" xmlns="http://www.w3.org/2000/svg"><g transform="translate(2.1 7.904)"><rect style="fill:#fdc802;fill-opacity:1;stroke-width:12.9294" width="74.778" height="74.778" x="5" y="9.707" ry="10.972"/><path style="fill:currentColor;stroke-width:7.13129" d="M23.87 32.191h63.564v3H23.87z" transform="translate(5.592 21.415)"/><path style="fill:currentColor;stroke-width:4.86205" d="M90.706 29.191a4.5 4.5 0 0 0-4.5 4.5 4.5 4.5 0 0 0 4.5 4.5 4.5 4.5 0 0 0 4.5-4.5 4.5 4.5 0 0 0-4.5-4.5zm0 3a1.5 1.5 0 0 1 1.5 1.5 1.5 1.5 0 0 1-1.5 1.5 1.5 1.5 0 0 1-1.5-1.5 1.5 1.5 0 0 1 1.5-1.5zM20.462 29.191a4.5 4.5 0 0 0-4.5 4.5 4.5 4.5 0 0 0 4.5 4.5 4.5 4.5 0 0 0 4.5-4.5 4.5 4.5 0 0 0-4.5-4.5zm0 3a1.5 1.5 0 0 1 1.5 1.5 1.5 1.5 0 0 1-1.5 1.5 1.5 1.5 0 0 1-1.5-1.5 1.5 1.5 0 0 1 1.5-1.5z" transform="translate(5.592 21.415)"/></g></svg>