<?xml version="1.0" encoding="UTF-8" standalone="no"?>
<!-- Created with Inkscape (http://www.inkscape.org/) -->

<svg
   viewBox="0 0 317.50006 158.75012"
   version="1.1"
   id="svg1"
   inkscape:version="1.3 (0e150ed6c4, 2023-07-21)"
   sodipodi:docname="ugn2025_logo.svg"
   inkscape:export-filename="ugn2025_logo.png"
   inkscape:export-xdpi="96"
   inkscape:export-ydpi="96"
   xmlns:inkscape="http://www.inkscape.org/namespaces/inkscape"
   xmlns:sodipodi="http://sodipodi.sourceforge.net/DTD/sodipodi-0.dtd"
   xmlns="http://www.w3.org/2000/svg"
   xmlns:svg="http://www.w3.org/2000/svg">
  <sodipodi:namedview
     id="namedview1"
     pagecolor="#ffffff"
     bordercolor="#000000"
     borderopacity="0.25"
     inkscape:showpageshadow="2"
     inkscape:pageopacity="0.0"
     inkscape:pagecheckerboard="0"
     inkscape:deskcolor="#d1d1d1"
     inkscape:document-units="mm"
     inkscape:zoom="0.56504558"
     inkscape:cx="593.75741"
     inkscape:cy="349.52933"
     inkscape:window-width="1920"
     inkscape:window-height="1174"
     inkscape:window-x="-11"
     inkscape:window-y="-11"
     inkscape:window-maximized="1"
     inkscape:current-layer="layer1" />
  <defs
     id="defs1">
    <clipPath
       id="s">
      <path
         d="M 0,0 V 30 H 60 V 0 Z"
         id="path1" />
    </clipPath>
    <clipPath
       id="t">
      <path
         d="m 30,15 h 30 v 15 z m 0,0 V 30 H 0 Z m 0,0 H 0 V 0 Z m 0,0 V 0 h 30 z"
         id="path2" />
    </clipPath>
    <clipPath
       id="t-0">
      <path
         d="m 30,15 h 30 v 15 z m 0,0 V 30 H 0 Z m 0,0 H 0 V 0 Z m 0,0 V 0 h 30 z"
         id="path2-0" />
    </clipPath>
    <clipPath
       clipPathUnits="userSpaceOnUse"
       id="clipPath14">
      <g
         id="g15">
        <path
           d="m -637.33615,-211.39498 v 158.750001 h 317.5 V -211.39498 Z"
           id="path14"
           style="stroke-width:5.29167" />
      </g>
    </clipPath>
    <clipPath
       clipPathUnits="userSpaceOnUse"
       id="clipPath15">
      <g
         id="g16">
        <path
           d="m -637.33615,-211.39498 v 158.750001 h 317.5 V -211.39498 Z"
           id="path15"
           style="stroke-width:5.29167" />
      </g>
    </clipPath>
    <clipPath
       clipPathUnits="userSpaceOnUse"
       id="clipPath16">
      <g
         id="g17"
         transform="matrix(0.18897638,0,0,0.18897638,120.44148,39.948657)">
        <path
           d="m -637.33615,-211.39498 v 158.750001 h 317.5 V -211.39498 Z"
           id="path16"
           style="stroke-width:5.29167" />
      </g>
    </clipPath>
    <clipPath
       clipPathUnits="userSpaceOnUse"
       id="clipPath17">
      <g
         id="g18">
        <path
           d="m -637.33615,-211.39498 v 158.750001 h 317.5 V -211.39498 Z"
           id="path17"
           style="stroke-width:5.29167" />
      </g>
    </clipPath>
    <clipPath
       clipPathUnits="userSpaceOnUse"
       id="clipPath18">
      <g
         id="g19">
        <path
           d="m -637.33615,-211.39498 v 158.750001 h 317.5 V -211.39498 Z"
           id="path18"
           style="stroke-width:5.29167" />
      </g>
    </clipPath>
  </defs>
  <g
     inkscape:label="Layer 1"
     inkscape:groupmode="layer"
     id="layer1"
     transform="translate(392.76059,-142.19482)">
    <rect
       style="fill:#012169;fill-opacity:1;stroke-width:0.396875;stroke-linecap:round"
       id="rect13"
       width="317.5"
       height="158.75"
       x="-392.76059"
       y="142.19482"
       rx="0.46380284"
       ry="0.71107817" />
    <path
       id="path8-2"
       style="fill:#ffffff;stroke-width:0.490352;stroke-linecap:round"
       d="m -392.76052,142.19494 a 158.75,79.375 0 0 0 158.75,79.375 158.75,79.375 0 0 0 158.749998,-79.375 z" />
    <path
       id="ellipse19"
       style="fill:#ffffff;stroke-width:0.490352;stroke-linecap:round"
       d="m -234.01052,221.56994 a 158.75,79.375 0 0 0 -158.75,79.375 h 317.499998 a 158.75,79.375 0 0 0 -158.749998,-79.375 z" />
    <path
       id="ellipse20"
       style="fill:#ff4198;fill-opacity:1;stroke-width:0.465762;stroke-linecap:round"
       d="m -387.46886,142.19494 a 153.45833,74.083336 0 0 0 153.45834,74.08333 153.45833,74.083336 0 0 0 153.458331,-74.08333 z" />
    <path
       id="ellipse20-6"
       style="fill:#ffffff;fill-opacity:1;stroke-width:0.416077;stroke-linecap:round"
       d="m -376.88552,142.19494 a 142.875,63.5 0 0 0 142.875,63.5 142.875,63.5 0 0 0 142.874998,-63.5 z" />
    <path
       id="ellipse20-6-2"
       style="fill:#012169;fill-opacity:1;stroke-width:0.339727;stroke-linecap:round"
       d="m -361.01052,142.19494 a 127,47.625 0 0 0 127,47.625 127,47.625 0 0 0 127,-47.625 z" />
    <path
       id="ellipse20-7"
       style="fill:#ff4198;fill-opacity:1;stroke-width:0.465762;stroke-linecap:round"
       d="m -234.01052,226.8616 a 153.45833,74.083336 0 0 0 -153.45834,74.08334 H -80.552189 A 153.45833,74.083336 0 0 0 -234.01052,226.8616 Z" />
    <path
       id="ellipse20-6-6"
       style="fill:#ffffff;fill-opacity:1;stroke-width:0.416077;stroke-linecap:round"
       d="m -234.01052,237.44494 a 142.875,63.5 0 0 0 -142.875,63.5 h 285.749998 a 142.875,63.5 0 0 0 -142.874998,-63.5 z" />
    <path
       id="ellipse20-6-2-3"
       style="fill:#012169;fill-opacity:1;stroke-width:0.339727;stroke-linecap:round"
       d="m -234.01052,253.31994 a 127,47.625 0 0 0 -127,47.625 h 254 a 127,47.625 0 0 0 -127,-47.625 z" />
    <rect
       style="fill:#ffffff;stroke-width:0.396875;stroke-linecap:round"
       id="rect3"
       width="52.916668"
       height="158.75"
       x="-260.46893"
       y="142.19482" />
    <rect
       style="fill:#ffffff;stroke-width:2.31607;stroke-linecap:round"
       id="rect2"
       width="317.5"
       height="52.916668"
       x="-392.76059"
       y="195.1115" />
    <rect
       style="fill:#ff4198;fill-opacity:1;stroke-width:1.21767;stroke-linecap:round"
       id="rect25"
       width="31.75"
       height="158.75"
       x="-249.88559"
       y="142.19482" />
    <rect
       style="fill:#ff4198;fill-opacity:1;stroke-width:1.72205;stroke-linecap:round"
       id="rect25-4"
       width="317.5"
       height="31.75"
       x="-392.76059"
       y="205.69482" />
    <text
       xml:space="preserve"
       style="font-size:25.4px;font-family:'Baskerville Old Face';-inkscape-font-specification:'Baskerville Old Face';fill:#ffffff;fill-opacity:1;stroke-width:1.85208"
       x="-384.02277"
       y="230.71382"
       id="text1"><tspan
         sodipodi:role="line"
         id="tspan1"
         style="font-style:normal;font-variant:normal;font-weight:bold;font-stretch:normal;font-size:25.4px;font-family:Raleway;-inkscape-font-specification:Raleway;fill:#ffffff;fill-opacity:1;stroke-width:1.85208"
         x="-384.02277"
         y="230.71382">UK Goaltimate Nationals</tspan></text>
    <text
       xml:space="preserve"
       style="font-size:25.4px;line-height:21.1667px;font-family:'Baskerville Old Face';-inkscape-font-specification:'Baskerville Old Face';fill:#ffffff;fill-opacity:1;stroke-width:1.85208"
       x="-241.021"
       y="262.78555"
       id="text1-2-9"><tspan
         sodipodi:role="line"
         id="tspan1-6-9"
         style="font-style:normal;font-variant:normal;font-weight:bold;font-stretch:normal;font-size:25.4px;line-height:21.1667px;font-family:Raleway;-inkscape-font-specification:Raleway;fill:#ffffff;fill-opacity:1;stroke-width:1.85208"
         x="-241.021"
         y="262.78555">2</tspan><tspan
         sodipodi:role="line"
         style="font-style:normal;font-variant:normal;font-weight:bold;font-stretch:normal;font-size:25.4px;line-height:21.1667px;font-family:Raleway;-inkscape-font-specification:Raleway;fill:#ffffff;fill-opacity:1;stroke-width:1.85208"
         x="-241.021"
         y="284.12991"
         id="tspan25-1">5</tspan></text>
    <text
       xml:space="preserve"
       style="font-size:25.4px;line-height:21.1667px;font-family:'Baskerville Old Face';-inkscape-font-specification:'Baskerville Old Face';fill:#ffffff;fill-opacity:1;stroke-width:1.85208"
       x="-241.66869"
       y="173.51312"
       id="text1-2-9-3"><tspan
         sodipodi:role="line"
         id="tspan1-6-9-3"
         style="font-style:normal;font-variant:normal;font-weight:bold;font-stretch:normal;font-size:25.4px;line-height:21.1667px;font-family:Raleway;-inkscape-font-specification:Raleway;fill:#ffffff;fill-opacity:1;stroke-width:1.85208"
         x="-241.66869"
         y="173.51312">2</tspan><tspan
         sodipodi:role="line"
         style="font-style:normal;font-variant:normal;font-weight:bold;font-stretch:normal;font-size:25.4px;line-height:21.1667px;font-family:Raleway;-inkscape-font-specification:Raleway;fill:#ffffff;fill-opacity:1;stroke-width:1.85208"
         x="-241.66869"
         y="194.8575"
         id="tspan25-1-6">0</tspan></text>
  </g>
</svg>
