<svg class="center pdb-4" width="270"  viewBox="0 0 44.979 26.458" xml:space="preserve" xmlns="http://www.w3.org/2000/svg"><g transform="translate(-70.213 -113.468)"><ellipse style="fill:#59d24c;fill-opacity:1;stroke-width:.181401;stroke-linecap:round" cx="81.36" cy="130.236" rx="9.536" ry="5.758"/><path style="fill:#59d24c;fill-opacity:1;stroke-width:.258905;stroke-linecap:round" d="M82.14 124.478a14.83 3.599 0 0 0-.183.002c.102.007.183.09.183.194v7a14.83 3.599 0 0 0 14.83-3.598 14.83 3.599 0 0 0-14.83-3.599Z"/><path style="fill:var(--accent);fill-opacity:1;stroke-width:.386112;stroke-linecap:round" d="M97.201 114.21a16.995 16.864 0 0 0-16.913 15.728h.476c.278-4.1 2.193-8.021 5.12-10.716 2.613-2.475 5.992-3.943 9.462-4.373l.544-.03c.39-.037.782-.06 1.174-.066 4.224-.076 8.47 1.606 11.6 4.589l.355-.359a16.995 16.864 0 0 0-11.818-4.772Z"/><rect style="fill:var(--accent);fill-opacity:1;stroke-width:.0579441;stroke-linecap:round" width="6.906" height=".537" x="132.564" y="98.524" rx=".117" ry=".029" transform="rotate(13.551)"/><rect style="fill:var(--accent);fill-opacity:1;stroke-width:.0579441;stroke-linecap:round" width="6.906" height=".537" x="64.095" y="154.675" rx=".117" ry=".029" transform="rotate(-15.56)"/><rect style="fill:var(--accent);fill-opacity:1;stroke-width:.0579441;stroke-linecap:round" width="6.906" height=".537" x="96.323" y="139.715" rx=".117" ry=".029" transform="rotate(-4.356)"/><rect style="fill:var(--accent);fill-opacity:1;stroke-width:.0579441;stroke-linecap:round" width="6.906" height=".537" x="115.5" y="124.199" rx=".117" ry=".029" transform="rotate(4.553)"/><path style="fill:#b3b3b3;fill-opacity:1;stroke-width:.249531;stroke-linecap:round" d="M90.798 137.453a1.698.827 0 0 1 .073.007 1.752.872 0 0 0-.073-.007zm.145.015a1.698.827 0 0 1 .14.022 1.752.872 0 0 0-.14-.022zm.14.022a1.698.827 0 0 1 1.118.776 1.698.827 0 0 1-1.698.827 1.698.827 0 0 1-1.698-.827 1.698.827 0 0 1 1.256-.797 1.752.872 0 0 0-1.31.843 1.752.872 0 0 0 1.752.872 1.752.872 0 0 0 1.752-.872 1.752.872 0 0 0-1.171-.822z"/><path style="fill:#fff;stroke-width:.498258;stroke-linecap:round" d="M90.5 137.453a1.721.842 0 0 0-1.48.412 1.698.827 0 0 0-.215.401 1.698.827 0 0 0 1.698.827 1.698.827 0 0 0 1.698-.826 1.698.827 0 0 0-.105-.287 1.698.827 0 0 0-.006-.008 1.721.842 0 0 0-.003-.004 1.721.842 0 0 0-1.587-.516zm.298 0a1.752.872 0 0 1 .073.007 1.698.827 0 0 0-.073-.007z"/></g></svg>