<svg height="100%" viewBox="0 0 179.917 47.625" xmlns="http://www.w3.org/2000/svg"><g transform="translate(-16.443 -35.454)"><path style="stroke-width:.987751;fill-opacity:1" d="M39.206 38.1a21.167 21.167 0 0 0-21.119 19.827h10.76a10.45 10.45 0 0 1 10.36-9.11 10.45 10.45 0 0 1 10.353 9.11h10.717A21.167 21.167 0 0 0 39.207 38.1Z"/><circle style="stroke-width:.911565;fill-opacity:1" cx="39.158" cy="59.267" r="4.019"/><path style="stroke-width:1.27273;fill-opacity:1" d="M49.56 60.606a10.45 10.45 0 0 1-.28 1.384l9.898 4.1a21.167 21.167 0 0 0 1.1-5.484zM30.12 64.46l-9.9 4.1a21.167 21.167 0 0 0 3.109 4.642l7.573-7.573a10.45 10.45 0 0 1-.783-1.168zM48.245 64.46a10.45 10.45 0 0 1-.782 1.169l7.573 7.573a21.167 21.167 0 0 0 3.108-4.641z"/><path style="stroke-width:1.42077;fill-opacity:1" d="M18.087 60.606a21.167 21.167 0 0 0 1.1 5.483l9.897-4.1a10.45 10.45 0 0 1-.28-1.383z"/><text xml:space="preserve" style="font-size:25.4px;font-family:'Baskerville Old Face';-inkscape-font-specification:'Baskerville Old Face';stroke-width:1.85208;fill-opacity:1" x="67.196" y="68.411"><tspan style="font-style:normal;font-variant:normal;font-weight:400;font-stretch:normal;font-size:25.4px;font-family:Raleway;stroke-width:1.85208;fill-opacity:1" x="67.196" y="68.411">Goaltimate</tspan></text></g></svg>