<svg width="512" height="512" viewBox="0 0 135.467 135.467" xmlns="http://www.w3.org/2000/svg"><g transform="translate(-105.037 52.578)"><path style="fill:#1a1a1a;stroke-width:3.13611" d="M172.923-52.049a67.204 67.204 0 0 0-67.053 62.951h34.16a33.177 33.177 0 0 1 32.893-28.923 33.177 33.177 0 0 1 32.871 28.923h34.029a67.204 67.204 0 0 0-66.9-62.95z"/><circle style="fill:#1a1a1a;stroke-width:2.89422" cx="172.77" cy="15.155" r="12.76"/><path style="fill:#0b1728;stroke-width:4.04093" d="M205.794 19.409a33.177 33.177 0 0 1-.886 4.391l31.424 13.016a67.204 67.204 0 0 0 3.49-17.407zM144.07 31.647l-31.427 13.017A67.204 67.204 0 0 0 122.51 59.4l24.044-24.044a33.177 33.177 0 0 1-2.484-3.708zM201.622 31.647a33.177 33.177 0 0 1-2.484 3.708l24.043 24.044a67.204 67.204 0 0 0 9.869-14.735z"/><path style="fill:#0b1728;stroke-width:4.51093" d="M105.87 19.409a67.204 67.204 0 0 0 3.49 17.407L140.784 23.8a33.177 33.177 0 0 1-.886-4.391z"/></g></svg>