<?xml version="1.0" encoding="UTF-8" standalone="no"?>
<!-- Created with Inkscape (http://www.inkscape.org/) -->

<svg
   width="135.46666mm"
   height="135.46666mm"
   viewBox="0 0 135.46666 135.46666"
   version="1.1"
   id="svg1"
   inkscape:version="1.3 (0e150ed6c4, 2023-07-21)"
   sodipodi:docname="goaltimate_logo_square_pink.svg"
   inkscape:export-filename="goaltimate_logo_square_pink_on_white.png"
   inkscape:export-xdpi="96"
   inkscape:export-ydpi="96"
   xmlns:inkscape="http://www.inkscape.org/namespaces/inkscape"
   xmlns:sodipodi="http://sodipodi.sourceforge.net/DTD/sodipodi-0.dtd"
   xmlns="http://www.w3.org/2000/svg"
   xmlns:svg="http://www.w3.org/2000/svg">
  <sodipodi:namedview
     id="namedview1"
     pagecolor="#ffffff"
     bordercolor="#000000"
     borderopacity="0.25"
     inkscape:showpageshadow="2"
     inkscape:pageopacity="0.0"
     inkscape:pagecheckerboard="0"
     inkscape:deskcolor="#d1d1d1"
     inkscape:document-units="mm"
     inkscape:zoom="0.73890576"
     inkscape:cx="5.4134102"
     inkscape:cy="279.4673"
     inkscape:window-width="2560"
     inkscape:window-height="1369"
     inkscape:window-x="-8"
     inkscape:window-y="-8"
     inkscape:window-maximized="1"
     inkscape:current-layer="layer1" />
  <defs
     id="defs1" />
  <g
     inkscape:label="Layer 1"
     inkscape:groupmode="layer"
     id="layer1"
     transform="translate(-105.03672,52.578213)">
    <circle
       style="fill:#f9f9f9;fill-opacity:1;stroke-width:3.4014"
       id="path1"
       cx="172.77005"
       cy="15.155117"
       r="67.73333" />
    <path
       id="path25"
       style="fill:#ff4198;stroke-width:3.13611;fill-opacity:1"
       d="m 172.92261,-52.04877 a 67.204167,67.204167 0 0 0 -67.05297,62.95074 h 34.15952 a 33.176743,33.176743 0 0 1 32.89345,-28.9233 33.176743,33.176743 0 0 1 32.87186,28.9233 h 34.02825 a 67.204167,67.204167 0 0 0 -66.90011,-62.95074 z" />
    <circle
       style="fill:#ff4198;stroke-width:2.89422;fill-opacity:1"
       id="path6-1-8-9-7"
       cx="172.77005"
       cy="15.155117"
       r="12.760285" />
    <path
       id="path26"
       style="fill:#ff4198;stroke-width:4.04093;fill-opacity:1"
       inkscape:transform-center-x="-17.296114"
       inkscape:transform-center-y="5.4091091"
       d="m 205.79447,19.40883 a 33.176743,33.176743 0 0 1 -0.88641,4.39134 l 31.42387,13.01615 a 67.204167,67.204167 0 0 0 3.49079,-17.40749 z" />
    <path
       id="path26-3"
       style="fill:#ff4198;stroke-width:4.04093;fill-opacity:1"
       inkscape:transform-center-x="15.733456"
       inkscape:transform-center-y="16.719334"
       d="m 144.07075,31.64657 -31.42802,13.01782 a 67.204167,67.204167 0 0 0 9.86845,14.73414 l 24.0435,-24.0435 a 33.176743,33.176743 0 0 1 -2.48393,-3.70846 z" />
    <path
       id="path26-1"
       style="fill:#ff4198;stroke-width:4.04093;fill-opacity:1"
       inkscape:transform-center-x="-16.029565"
       inkscape:transform-center-y="16.260848"
       d="m 201.62162,31.64657 a 33.176743,33.176743 0 0 1 -2.48393,3.70846 l 24.0435,24.0435 a 67.204167,67.204167 0 0 0 9.86845,-14.73414 z" />
    <path
       id="path26-6"
       style="fill:#ff4198;stroke-width:4.51093;fill-opacity:1"
       inkscape:transform-center-x="21.720263"
       inkscape:transform-center-y="10.576379"
       d="m 105.86964,19.40883 a 67.204167,67.204167 0 0 0 3.4908,17.40749 l 31.42387,-13.01615 a 33.176743,33.176743 0 0 1 -0.88641,-4.39134 z" />
  </g>
</svg>
